<svg width="40" height="40" viewBox="0 0 40 40" fill="none" xmlns="http://www.w3.org/2000/svg">
<path d="M21.6666 1.30954C21.6666 0.801419 21.3674 0.339169 20.8989 0.123648C20.4303 -0.091872 19.8772 -0.0217536 19.4797 0.303535L15.4797 3.57733C15.1757 3.82613 15 4.19469 15 4.58333C15 4.97197 15.1757 5.34053 15.4797 5.58933L19.4797 8.86313C19.8772 9.18842 20.4303 9.25854 20.8989 9.04302C21.3674 8.8275 21.6666 8.36525 21.6666 7.85713V5.93034C28.7053 6.75522 34.1666 12.7398 34.1666 20C34.1666 27.824 27.824 34.1667 20 34.1667C12.1759 34.1667 5.83331 27.824 5.83331 20C5.83331 16.2497 7.28893 12.8421 9.66841 10.307C10.1409 9.80362 10.1158 9.01256 9.61245 8.5401C9.10909 8.06765 8.31803 8.0927 7.84557 8.59607C5.04836 11.5763 3.33331 15.5892 3.33331 20C3.33331 29.2047 10.7952 36.6667 20 36.6667C29.2047 36.6667 36.6666 29.2047 36.6666 20C36.6666 11.3578 30.0889 4.25183 21.6666 3.41563V1.30954Z" fill="white"/>
<path d="M15.7023 26.3574C14.9503 26.3574 14.5117 25.874 14.5117 25.0594V16.3582H14.458L13.2316 17.2266C12.8467 17.4772 12.6229 17.5578 12.3633 17.5578C11.8709 17.5578 11.5039 17.1908 11.5039 16.6984C11.5039 16.3224 11.7366 15.9912 12.1932 15.6868L13.7956 14.5679C14.4401 14.1292 14.9503 13.9502 15.4516 13.9502C16.32 13.9502 16.9018 14.55 16.9018 15.4541V25.0594C16.9018 25.883 16.4632 26.3574 15.7023 26.3574Z" fill="white"/>
<path d="M23.6336 26.5096C21.2077 26.5096 19.4889 25.14 19.4889 23.7703C19.4889 23.1706 19.8738 22.6961 20.4736 22.6961C20.8496 22.6961 21.136 22.8573 21.4315 23.278C21.9954 24.1195 22.7116 24.5402 23.6247 24.5402C24.9764 24.5402 25.9342 23.6003 25.9342 22.2485C25.9342 20.9416 25.0122 20.0464 23.7231 20.0464C23.1234 20.0464 22.5146 20.2702 21.9865 20.682C21.4583 21.1296 21.1987 21.237 20.8675 21.237C20.1334 21.237 19.6321 20.7088 19.6859 19.8853L20.0171 15.284C20.0797 14.4336 20.59 14.0218 21.5747 14.0218H26.6414C27.3576 14.0218 27.7783 14.3888 27.7783 15.0155C27.7783 15.6421 27.3665 15.9912 26.6414 15.9912H22.0133L21.7627 19.1512H21.888C22.3087 18.5783 23.3024 18.1844 24.3498 18.1844C26.6772 18.1844 28.2796 19.7957 28.2796 22.159C28.2796 24.764 26.4087 26.5096 23.6336 26.5096Z" fill="white"/>
</svg>
