<svg width="20" height="20" viewBox="0 0 20 20" fill="none" xmlns="http://www.w3.org/2000/svg">
<path d="M15.9023 12.9082C15.9023 12.9133 15.9023 12.9188 15.9023 12.9238C15.9023 13.0626 15.903 13.1905 15.8994 13.3174L15.8984 13.3193C15.8909 13.6017 15.8728 13.8604 15.8301 14.0957V14.0967C15.7879 14.3305 15.7213 14.5357 15.6221 14.7314V14.7324C15.5262 14.922 15.3994 15.0986 15.249 15.249C15.0954 15.4027 14.9168 15.5316 14.7295 15.627V15.6279C14.5342 15.7268 14.33 15.7921 14.0996 15.833L14.0938 15.834C13.9798 15.8551 13.8595 15.869 13.7314 15.8789L13.3223 15.8984H13.3174C13.1751 15.9025 13.0505 15.9062 12.9238 15.9062H6.69727C6.5707 15.9062 6.44284 15.9025 6.30469 15.8984H6.29883C6.00606 15.8917 5.75474 15.8766 5.52246 15.834L5.51758 15.833C5.2857 15.7919 5.08251 15.7256 4.88867 15.627L4.88281 15.625C4.69813 15.5327 4.52347 15.4042 4.35938 15.2432L4.3584 15.2441C4.2116 15.0961 4.08473 14.9186 3.98145 14.7217C3.8884 14.5356 3.82732 14.3347 3.78418 14.0986C3.74078 13.861 3.7224 13.6035 3.71484 13.3193V13.3174C3.71125 13.1905 3.71191 13.0626 3.71191 12.9238L3.71094 12.9033C3.70722 12.7472 3.70801 12.5931 3.70801 12.4277V12.4238L3.69922 10.5264V7.2207C3.69922 7.06972 3.70643 6.8954 3.71094 6.70605L3.71191 6.68555L3.71484 6.29688V6.29395L3.73633 5.88574C3.74169 5.82107 3.748 5.75799 3.75586 5.69629L3.7832 5.51465L3.78418 5.5127L3.82031 5.33887C3.85979 5.17646 3.91175 5.03199 3.98145 4.89258L4.06445 4.74707C4.15063 4.60774 4.24953 4.48082 4.35938 4.37012L4.48242 4.25781C4.60833 4.15102 4.74312 4.06035 4.8877 3.98633H4.88867C5.03057 3.91414 5.17703 3.86017 5.34277 3.82031L5.51562 3.78516L5.52441 3.7832L5.7041 3.75586C5.88797 3.73222 6.08571 3.72072 6.29883 3.71582H6.30469L6.69727 3.71191C6.70417 3.71191 6.71184 3.71208 6.71875 3.71191C6.87041 3.70822 7.02774 3.70801 7.19336 3.70801H7.19727L9.08008 3.7002H10.5059L12.4238 3.70801H12.4277L12.9033 3.71191H12.9238C13.0667 3.71191 13.1916 3.71223 13.3174 3.71582H13.3223L13.7256 3.73633C13.8543 3.74711 13.9772 3.76162 14.0938 3.7832L14.0996 3.78516L14.2725 3.82031C14.3836 3.84716 14.487 3.88055 14.5859 3.9209L14.7314 3.9873C14.9246 4.08887 15.1009 4.2171 15.249 4.36523C15.3993 4.5156 15.5263 4.69233 15.6221 4.88184V4.88281L15.6914 5.03125C15.7542 5.18224 15.7988 5.33902 15.8301 5.5127L15.8584 5.69531C15.8821 5.88194 15.8928 6.07993 15.8984 6.29395L15.8994 6.29688L15.9023 6.68555V6.70117L15.9053 7.18164V12.4277L15.9023 12.9082ZM17.6055 7.18164L17.6025 6.6709C17.6025 6.53985 17.6029 6.393 17.5986 6.24707C17.5922 6.0042 17.5778 5.74538 17.5439 5.47949L17.5029 5.21094C17.4347 4.83286 17.3199 4.473 17.1387 4.11523L17.1396 4.11426C16.9635 3.76593 16.7297 3.44263 16.4502 3.16309C16.1705 2.88339 15.8493 2.65234 15.5078 2.47461L15.5 2.4707C15.1357 2.28594 14.7698 2.17897 14.4023 2.11328L14.4033 2.1123C14.0426 2.04551 13.6828 2.0231 13.3613 2.01562L13.3604 2.0166C13.2155 2.01256 13.0751 2.0127 12.9434 2.0127L12.9443 2.01172C12.7693 2.00745 12.592 2.00879 12.4307 2.00879L12.4316 2.00781L10.5127 2H9.07324L7.19043 2.00781V2.00879C7.02914 2.00879 6.85174 2.00745 6.67676 2.01172V2.0127C6.54522 2.0127 6.40212 2.01254 6.25977 2.0166V2.01562C5.93689 2.02304 5.58138 2.04579 5.22363 2.11133V2.11035C4.84606 2.17634 4.48176 2.2861 4.11719 2.47168H4.11621C3.76174 2.6528 3.4455 2.88476 3.16797 3.15723L3.16211 3.16309C2.88146 3.44381 2.65292 3.7652 2.47559 4.10352L2.4707 4.11328C2.28554 4.47835 2.17792 4.84054 2.11133 5.20898L2.06934 5.47949C2.03519 5.74686 2.02198 6.00628 2.01562 6.24707L2.01172 6.66602L2 7.2207V10.5332L2.00781 12.4316C2.00781 12.593 2.00747 12.766 2.01172 12.9443C2.01172 13.0742 2.01145 13.219 2.01562 13.3662C2.0241 13.6834 2.04495 14.0409 2.11133 14.4043C2.17742 14.766 2.28457 15.133 2.4707 15.5L2.47559 15.5107L2.61816 15.7607C2.77045 16.007 2.95151 16.2406 3.16211 16.4512L3.16797 16.4561L3.38184 16.6523C3.60349 16.8411 3.84979 17.0093 4.12207 17.1455V17.1445C4.48054 17.3263 4.84543 17.4402 5.22168 17.5068V17.5059C5.5855 17.5721 5.94054 17.5894 6.25488 17.5967V17.5977C6.39038 17.6016 6.54218 17.6055 6.69727 17.6055H12.9238C13.079 17.6055 13.2286 17.6016 13.3662 17.5977L13.3652 17.5967C13.6744 17.5894 14.0343 17.5723 14.3965 17.5059L14.3975 17.5068L14.3984 17.5059C14.4 17.5056 14.4017 17.5062 14.4033 17.5059L14.4023 17.5049C14.7774 17.4378 15.1415 17.3244 15.5 17.1426H15.501L15.7588 16.998C16.0102 16.8433 16.243 16.6583 16.4502 16.4512C16.7297 16.1716 16.9635 15.8474 17.1396 15.499H17.1387C17.3208 15.1396 17.4351 14.7756 17.5029 14.4004L17.5439 14.1318C17.5779 13.8657 17.5922 13.6055 17.5986 13.3662L17.6025 12.9395L17.6055 12.4277V7.18164Z" fill="white"/>
<path d="M12.9009 10.6523L12.9878 10.6484C13.4163 10.6048 13.7505 10.2428 13.7505 9.80273C13.7505 9.3627 13.4163 9.00066 12.9878 8.95703L12.9009 8.95312H6.70166C6.23222 8.95312 5.85205 9.33329 5.85205 9.80273C5.85205 10.2722 6.23222 10.6523 6.70166 10.6523H12.9009Z" fill="white"/>
<path d="M8.95312 6.70459V12.9048C8.95312 13.3742 9.33329 13.7544 9.80273 13.7544C10.2428 13.7544 10.6049 13.4203 10.6484 12.9917L10.6523 12.9048V6.70459L10.6484 6.61768C10.6048 6.18916 10.2428 5.85498 9.80273 5.85498C9.3627 5.85498 9.00066 6.18916 8.95703 6.61768L8.95312 6.70459Z" fill="white"/>
</svg>
