<svg width="40" height="40" viewBox="0 0 40 40" fill="none" xmlns="http://www.w3.org/2000/svg">
<path d="M19.1011 0.123648C18.6326 0.339169 18.3333 0.801419 18.3333 1.30954V3.41563C9.91111 4.25183 3.33331 11.3578 3.33331 20C3.33331 29.2047 10.7952 36.6667 20 36.6667C29.2047 36.6667 36.6666 29.2047 36.6666 20C36.6666 15.5892 34.9516 11.5763 32.1544 8.59607C31.6819 8.0927 30.8909 8.06765 30.3875 8.5401C29.8841 9.01256 29.8591 9.80362 30.3315 10.307C32.711 12.8421 34.1666 16.2497 34.1666 20C34.1666 27.824 27.824 34.1667 20 34.1667C12.1759 34.1667 5.83331 27.824 5.83331 20C5.83331 12.7398 11.2947 6.75522 18.3333 5.93034V7.85713C18.3333 8.36525 18.6326 8.8275 19.1011 9.04302C19.5696 9.25854 20.1228 9.18842 20.5202 8.86313L24.5202 5.58933C24.8242 5.34053 25 4.97197 25 4.58333C25 4.19469 24.8242 3.82613 24.5202 3.57733L20.5202 0.303535C20.1228 -0.0217536 19.5696 -0.091872 19.1011 0.123648Z" fill="white"/>
<path d="M14.5125 25.0594C14.5125 25.874 14.9512 26.3574 15.7031 26.3574C16.464 26.3574 16.9026 25.883 16.9026 25.0594V15.4541C16.9026 14.55 16.3208 13.9502 15.4525 13.9502C14.9512 13.9502 14.4409 14.1292 13.7964 14.5679L12.194 15.6868C11.7374 15.9912 11.5047 16.3224 11.5047 16.6984C11.5047 17.1908 11.8717 17.5578 12.3641 17.5578C12.6237 17.5578 12.8475 17.4772 13.2324 17.2266L14.4588 16.3582H14.5125V25.0594Z" fill="white"/>
<path d="M19.4897 23.7703C19.4897 25.14 21.2085 26.5096 23.6344 26.5096C26.4095 26.5096 28.2804 24.764 28.2804 22.159C28.2804 19.7957 26.678 18.1844 24.3506 18.1844C23.3032 18.1844 22.3096 18.5783 21.8888 19.1512H21.7635L22.0141 15.9912H26.6422C27.3673 15.9912 27.7791 15.6421 27.7791 15.0155C27.7791 14.3888 27.3584 14.0218 26.6422 14.0218H21.5755C20.5908 14.0218 20.0805 14.4336 20.0179 15.284L19.6867 19.8853C19.633 20.7088 20.1343 21.237 20.8683 21.237C21.1995 21.237 21.4591 21.1296 21.9873 20.682C22.5154 20.2702 23.1242 20.0464 23.7239 20.0464C25.013 20.0464 25.935 20.9416 25.935 22.2485C25.935 23.6003 24.9772 24.5402 23.6255 24.5402C22.7124 24.5402 21.9962 24.1195 21.4323 23.278C21.1369 22.8573 20.8504 22.6961 20.4744 22.6961C19.8747 22.6961 19.4897 23.1706 19.4897 23.7703Z" fill="white"/>
</svg>
