<svg width="32" height="32" viewBox="0 0 32 32" fill="none" xmlns="http://www.w3.org/2000/svg">
<path d="M13.3334 8.33333C12.7811 8.33333 12.3334 8.78105 12.3334 9.33333C12.3334 9.88562 12.7811 10.3333 13.3334 10.3333V9.33333V8.33333ZM18.6667 10.3333C19.219 10.3333 19.6667 9.88562 19.6667 9.33333C19.6667 8.78105 19.219 8.33333 18.6667 8.33333V9.33333V10.3333ZM9.33335 4V5H22.6667V4V3H9.33335V4ZM25.3334 6.66667H24.3334V25.3333H25.3334H26.3334V6.66667H25.3334ZM22.6667 28V27H9.33335V28V29H22.6667V28ZM6.66669 25.3333H7.66669V6.66667H6.66669H5.66669V25.3333H6.66669ZM9.33335 28V27C8.41288 27 7.66669 26.2538 7.66669 25.3333H6.66669H5.66669C5.66669 27.3584 7.30831 29 9.33335 29V28ZM25.3334 25.3333H24.3334C24.3334 26.2538 23.5872 27 22.6667 27V28V29C24.6917 29 26.3334 27.3584 26.3334 25.3333H25.3334ZM22.6667 4V5C23.5872 5 24.3334 5.74619 24.3334 6.66667H25.3334H26.3334C26.3334 4.64162 24.6917 3 22.6667 3V4ZM9.33335 4V3C7.30831 3 5.66669 4.64162 5.66669 6.66667H6.66669H7.66669C7.66669 5.74619 8.41288 5 9.33335 5V4ZM20 18.6667H19C19 20.3235 17.6569 21.6667 16 21.6667V22.6667V23.6667C18.7614 23.6667 21 21.4281 21 18.6667H20ZM16 22.6667V21.6667C14.3432 21.6667 13 20.3235 13 18.6667H12H11C11 21.4281 13.2386 23.6667 16 23.6667V22.6667ZM12 18.6667H13C13 17.0098 14.3432 15.6667 16 15.6667V14.6667V13.6667C13.2386 13.6667 11 15.9052 11 18.6667H12ZM16 14.6667V15.6667C17.6569 15.6667 19 17.0098 19 18.6667H20H21C21 15.9052 18.7614 13.6667 16 13.6667V14.6667ZM13.3334 9.33333V10.3333H18.6667V9.33333V8.33333H13.3334V9.33333Z" fill="white"/>
</svg>
