<svg width="32" height="32" viewBox="0 0 32 32" fill="none" xmlns="http://www.w3.org/2000/svg">
<path d="M2.66665 14.0001L7.20128 7.76496C7.70309 7.07497 8.50475 6.66675 9.35791 6.66675H22.6156C23.4835 6.66675 24.2972 7.08916 24.7966 7.79904L29.3333 14.2477M2.66665 14.0001H1.33331M2.66665 14.0001V22.6667C2.66665 24.1395 3.86055 25.3334 5.33331 25.3334C6.80607 25.3334 7.99998 24.1395 7.99998 22.6667H24C24 24.1395 25.1939 25.3334 26.6666 25.3334C28.1394 25.3334 29.3333 24.1395 29.3333 22.6667V14.2477M29.3333 14.2477H30.6666M7.99998 17.3334H10.6666M21.3333 17.3334H24" stroke="white" stroke-width="2" stroke-linecap="round" stroke-linejoin="round"/>
</svg>
