<svg width="18" height="18" viewBox="0 0 18 18" fill="none" xmlns="http://www.w3.org/2000/svg">
<path d="M14.2268 5.12939L14.305 5.12588C14.6908 5.0867 14.9915 4.76084 14.9915 4.36475C14.9915 3.96866 14.6908 3.64279 14.305 3.60361L14.2268 3.6001H3.4646C3.0421 3.6001 2.69995 3.94225 2.69995 4.36475C2.69995 4.78724 3.0421 5.12939 3.4646 5.12939H14.2268Z" fill="white"/>
<path d="M13.3268 9.49878L13.405 9.49526C13.7908 9.45609 14.0915 9.13022 14.0915 8.73413C14.0915 8.33804 13.7908 8.01218 13.405 7.973L13.3268 7.96948H3.4646C3.0421 7.96948 2.69995 8.31163 2.69995 8.73413C2.69995 9.15663 3.0421 9.49878 3.4646 9.49878H13.3268Z" fill="white"/>
<path d="M12.4268 13.8721L12.505 13.8686C12.8908 13.8294 13.1915 13.5035 13.1915 13.1074C13.1915 12.7113 12.8908 12.3855 12.505 12.3463L12.4268 12.3428H3.4646C3.0421 12.3428 2.69995 12.6849 2.69995 13.1074C2.69995 13.5299 3.0421 13.8721 3.4646 13.8721H12.4268Z" fill="white"/>
</svg>
