<svg width="24" height="24" viewBox="0 0 24 24" fill="none" xmlns="http://www.w3.org/2000/svg">
<path d="M18.99 11.7185C18.99 15.7362 15.7337 18.9958 11.7185 18.9958C7.69812 18.9958 4.44116 15.7359 4.44116 11.7185H2.4021C2.4021 16.8619 6.57089 21.0349 11.7185 21.0349C16.8617 21.0349 21.0302 16.8615 21.0302 11.7185C21.0302 6.57162 16.8614 2.40214 11.7185 2.4021V4.44233C15.7339 4.44237 18.99 7.69751 18.99 11.7185Z" fill="white"/>
<path d="M11.0297 15.0006L10.8185 8.43296C10.7861 7.26056 12.5765 7.19577 12.6185 8.37657C12.6233 8.41857 12.4026 14.9538 12.4074 15.0006C12.375 15.8718 11.0573 15.8718 11.0297 15.0006Z" fill="white"/>
<path d="M8.55392 10.978L12.1731 14.4844H11.2587L14.8827 10.978C15.2379 10.6312 15.8103 10.6408 16.1571 11.002C16.5231 11.3716 16.4859 11.9956 16.0779 12.3232L12.1731 15.5152C11.9055 15.736 11.5215 15.7264 11.2587 15.5152L7.35392 12.3232C6.41672 11.5408 7.65872 10.1344 8.55392 10.978Z" fill="white"/>
</svg>
