<svg width="29" height="28" viewBox="0 0 29 28" fill="none" xmlns="http://www.w3.org/2000/svg">
<path d="M18.0715 23.9372H10.3435C7.98734 23.9372 6.11695 21.9409 6.26395 19.5889L6.81694 10.976C6.85474 10.325 7.39655 9.81684 8.05315 9.81684H20.3633C21.0199 9.81684 21.5547 10.325 21.5995 10.976L22.1455 19.5889C22.2995 21.9409 20.4291 23.9372 18.0715 23.9372ZM11.1317 7.43264C11.1317 5.73724 12.5094 4.35826 14.2048 4.35826C15.9002 4.35826 17.2847 5.73724 17.2847 7.43264V8.26286H11.1317V7.43264ZM23.7037 19.4908L23.1521 10.878C23.0597 9.41223 21.8347 8.26286 20.3633 8.26286H18.8373V7.43264C18.8373 4.87764 16.7598 2.80005 14.2048 2.80005C11.6512 2.80005 9.57914 4.87764 9.57914 7.43264V8.26286H8.05315C6.58175 8.26286 5.35674 9.41223 5.26434 10.878L4.71134 19.4908C4.61334 21.0378 5.16495 22.575 6.22615 23.7076C7.29295 24.8388 8.79094 25.4899 10.3435 25.4899H18.0715C19.6241 25.4899 21.1235 24.8388 22.1847 23.7076C23.2501 22.575 23.8031 21.0378 23.7037 19.4908Z" fill="#3C3C43" fill-opacity="0.6"/>
<path d="M18.0603 12.1354C17.6291 12.1354 17.2847 12.4854 17.2847 12.9124C17.2847 14.6078 15.9001 15.991 14.2047 15.991C12.5149 15.991 11.1317 14.6078 11.1317 12.9124C11.1317 12.4854 10.7873 12.1354 10.3547 12.1354C9.9235 12.1354 9.5791 12.4854 9.5791 12.9124C9.5791 15.466 11.6567 17.5436 14.2047 17.5436C16.7597 17.5436 18.8373 15.466 18.8373 12.9124C18.8373 12.4854 18.4873 12.1354 18.0603 12.1354Z" fill="#3C3C43" fill-opacity="0.6"/>
</svg>
