<svg width="20" height="20" viewBox="0 0 20 20" fill="none" xmlns="http://www.w3.org/2000/svg">
<path d="M3.00781 10.4821C3.00781 10.5412 3.00596 10.6106 3.00391 10.692C3.00197 10.7687 3 10.8578 3 10.9391V12.9723L3.00781 14.0582V14.4742C3.00782 14.6019 3.01281 14.727 3.0166 14.8414H3.01562C3.01992 15.1185 3.03617 15.423 3.09375 15.7379C3.15086 16.0512 3.24546 16.3653 3.40723 16.6783H3.40625C3.56111 16.9827 3.76569 17.2565 4.00195 17.4928L4.18457 17.6637C4.37351 17.8263 4.58421 17.9693 4.8125 18.0856V18.0865C5.12629 18.2488 5.443 18.3427 5.7627 18.4V18.399C6.07709 18.4568 6.38779 18.4683 6.64258 18.4762V18.4772C6.70856 18.4794 6.77385 18.4811 6.83203 18.4821C6.89218 18.4831 6.94572 18.4842 6.99902 18.486H12.3457C12.3991 18.4842 12.4527 18.4831 12.5127 18.4821C12.5706 18.4811 12.6353 18.4794 12.7012 18.4772L12.7002 18.4762C12.9555 18.4683 13.2684 18.4572 13.584 18.399L13.585 18.4C13.8966 18.343 14.2121 18.2494 14.5244 18.0885L14.7461 17.9645C14.8905 17.8757 15.0278 17.7751 15.1562 17.6656L15.3418 17.4948L15.3506 17.486L15.5146 17.3053C15.6741 17.1171 15.8181 16.9073 15.9346 16.6783H15.9336C16.0941 16.3658 16.1888 16.052 16.2461 15.7379L16.2812 15.5026C16.2907 15.425 16.298 15.3486 16.3037 15.274L16.3242 14.8531L16.3252 14.8483L16.332 14.4996V10.4567C16.3278 10.3337 16.3291 10.2644 16.3252 10.108L16.3242 10.1041C16.3182 9.90897 16.3096 9.68723 16.2812 9.45471L16.2461 9.21838C16.1884 8.90293 16.0937 8.59052 15.9326 8.27893L15.9316 8.27991C15.7765 7.97107 15.5731 7.70171 15.3477 7.47424L15.3486 7.47327C15.102 7.22132 14.8192 7.02268 14.5244 6.87268L14.5195 6.86975C14.2175 6.71874 13.9064 6.62083 13.5859 6.56213L13.5869 6.56116C13.2796 6.50428 12.9752 6.48767 12.7002 6.48303L12.7012 6.48206C12.6353 6.47981 12.5706 6.47913 12.5127 6.47815C12.4527 6.47713 12.3992 6.47601 12.3457 6.47424L12.3213 7.22424L12.2959 7.97327C12.3635 7.9755 12.4293 7.97717 12.4873 7.97815C12.5473 7.97917 12.5994 7.97934 12.6504 7.98108L12.6641 7.98206L13.0049 7.9967C13.1129 8.00535 13.2156 8.01863 13.3135 8.03674H13.3154L13.457 8.06702C13.5936 8.10137 13.7211 8.1487 13.8438 8.20959L13.9639 8.276C14.0806 8.34688 14.1864 8.42914 14.2773 8.52209L14.2812 8.52698L14.374 8.62659C14.4621 8.72938 14.5367 8.8411 14.5947 8.95764L14.5996 8.96741L14.6553 9.08655C14.7061 9.20847 14.7433 9.33904 14.7705 9.48792C14.8065 9.68581 14.8173 9.89469 14.8252 10.15C14.8273 10.2368 14.8283 10.3983 14.832 10.5074V14.4489L14.8252 14.8063L14.8086 15.1598C14.8044 15.2142 14.7992 15.2667 14.793 15.318L14.7705 15.4684C14.7339 15.6693 14.6801 15.8383 14.5996 15.9948L14.5977 15.9977C14.5196 16.1511 14.41 16.3002 14.2783 16.4362C14.1493 16.5634 13.9998 16.6722 13.8438 16.7516L13.8398 16.7535C13.6856 16.8333 13.5163 16.8877 13.3154 16.9244H13.3135C13.2178 16.9421 13.1176 16.9535 13.0088 16.9615L12.6523 16.9781H12.6504C12.5994 16.9799 12.5473 16.981 12.4873 16.9821L12.2959 16.986H7.04883L6.85742 16.9821C6.79717 16.981 6.74431 16.9799 6.69336 16.9781H6.69141C6.49661 16.9721 6.33031 16.9651 6.17871 16.9469L6.03125 16.9244L6.02734 16.9235C5.82327 16.8868 5.65601 16.8332 5.50195 16.7535L5.49609 16.7506C5.38021 16.6919 5.26821 16.6166 5.16406 16.527L5.0625 16.4323C4.93089 16.3006 4.82226 16.1532 4.74316 15.9977L4.74023 15.9928C4.67974 15.8763 4.6349 15.7523 4.60059 15.6129L4.57031 15.4684H4.56934C4.55111 15.3687 4.53872 15.2656 4.53027 15.1578L4.51562 14.818V14.8053C4.51153 14.6815 4.50782 14.5774 4.50781 14.4742V14.0475L4.5 12.9615V10.9391C4.5 10.8805 4.50185 10.8116 4.50391 10.7301C4.50584 10.6534 4.50781 10.5638 4.50781 10.4821L4.51562 10.152V10.1383L4.53027 9.79846C4.53873 9.69062 4.55206 9.58713 4.57031 9.48694H4.56934C4.59651 9.33864 4.63396 9.20926 4.68457 9.0885L4.74023 8.96936L4.74609 8.95764L4.80957 8.84241C4.85521 8.76775 4.90783 8.69714 4.96582 8.63049L5.05664 8.53381L5.06934 8.52112C5.19077 8.39637 5.3325 8.29289 5.49219 8.21155L5.61816 8.15491C5.74591 8.10239 5.87993 8.06319 6.02734 8.03674H6.03125L6.18164 8.01331C6.33595 7.99369 6.50137 7.98482 6.67969 7.98206H6.69336L6.66797 7.23206L6.69336 7.98108C6.74431 7.97934 6.79717 7.97917 6.85742 7.97815L7.04883 7.97327L7.125 7.96741C7.50187 7.91666 7.78627 7.58707 7.77344 7.19885C7.75957 6.78503 7.4129 6.46056 6.99902 6.47424L6.83203 6.47815C6.77386 6.47913 6.70855 6.4798 6.64258 6.48206V6.48303C6.36787 6.48771 6.06548 6.50443 5.75879 6.56116V6.56213C5.43269 6.62098 5.12257 6.71911 4.82129 6.86975L4.81836 6.8717C4.52268 7.02146 4.24847 7.21821 4.00781 7.46252V7.46155C4.00544 7.46387 4.00334 7.46703 4.00098 7.46936C3.99902 7.47136 3.99609 7.47322 3.99414 7.47522V7.4762C3.75922 7.70887 3.55647 7.98108 3.40332 8.2887L3.4043 8.28967C3.28546 8.52025 3.20213 8.75032 3.14453 8.98206L3.09375 9.21838C3.0363 9.53374 3.01993 9.83771 3.01562 10.1149L3.0166 10.1158C3.01281 10.2302 3.00781 10.3554 3.00781 10.4821ZM12.3457 6.47424C11.9319 6.46061 11.5851 6.78505 11.5713 7.19885C11.5576 7.61273 11.8821 7.95941 12.2959 7.97327L12.3457 6.47424Z" fill="black"/>
<path d="M10.2391 1.56396L10.4181 10.369C10.4301 11.369 8.90308 11.373 8.91808 10.369L9.09407 1.56396C9.11007 0.829964 10.2231 0.825964 10.2391 1.56396Z" fill="black"/>
<path d="M12.3049 4.91602L9.28492 1.99003H10.0469L7.02793 4.91602C6.73093 5.20102 6.25392 5.19703 5.96492 4.89603C5.65992 4.58803 5.69193 4.06802 6.03193 3.79502L9.28492 1.13502C9.51192 0.951017 9.82793 0.959017 10.0469 1.13502L13.3009 3.79502C14.0859 4.44702 13.0469 5.61902 12.3049 4.91602Z" fill="black"/>
</svg>
