<svg width="20" height="20" viewBox="0 0 20 20" fill="none" xmlns="http://www.w3.org/2000/svg">
<path d="M4.03502 16.6933L4.37551 16.0251L4.37551 16.0251L4.03502 16.6933ZM3.30666 15.965L3.97491 15.6245L3.97491 15.6245L3.30666 15.965ZM3.30666 4.03502L2.6384 3.69452L2.6384 3.69452L3.30666 4.03502ZM4.03502 3.30666L3.69452 2.6384H3.69452L4.03502 3.30666ZM9.375 3.875C9.78921 3.875 10.125 3.53921 10.125 3.125C10.125 2.71079 9.78921 2.375 9.375 2.375V3.125V3.875ZM15.965 16.6933L15.6245 16.0251L15.6245 16.0251L15.965 16.6933ZM16.6933 15.965L16.0251 15.6245L16.0251 15.6245L16.6933 15.965ZM17.625 10.625V9.875H16.125V10.625H16.875H17.625ZM14.2083 16.875V16.125H5.79167V16.875V17.625H14.2083V16.875ZM3.125 14.2083H3.875V5.79167H3.125H2.375V14.2083H3.125ZM5.79167 3.125V3.875H9.375V3.125V2.375H5.79167V3.125ZM16.875 10.625H16.125V14.2083H16.875H17.625V10.625H16.875ZM5.79167 16.875V16.125C5.31258 16.125 4.99837 16.1244 4.75808 16.1048C4.52654 16.0859 4.43042 16.0531 4.37551 16.0251L4.03502 16.6933L3.69452 17.3616C3.99613 17.5153 4.31163 17.5733 4.63593 17.5998C4.95147 17.6256 5.33733 17.625 5.79167 17.625V16.875ZM3.125 14.2083H2.375C2.375 14.6627 2.37442 15.0485 2.4002 15.3641C2.42669 15.6884 2.48472 16.0039 2.6384 16.3055L3.30666 15.965L3.97491 15.6245C3.94693 15.5696 3.91413 15.4735 3.89522 15.2419C3.87558 15.0016 3.875 14.6874 3.875 14.2083H3.125ZM4.03502 16.6933L4.37551 16.0251C4.20303 15.9372 4.0628 15.797 3.97491 15.6245L3.30666 15.965L2.6384 16.3055C2.87009 16.7602 3.2398 17.1299 3.69452 17.3616L4.03502 16.6933ZM14.2083 16.875V17.625C14.6627 17.625 15.0485 17.6256 15.3641 17.5998C15.6884 17.5733 16.0039 17.5153 16.3055 17.3616L15.965 16.6933L15.6245 16.0251C15.5696 16.0531 15.4735 16.0859 15.2419 16.1048C15.0016 16.1244 14.6874 16.125 14.2083 16.125V16.875ZM16.875 14.2083H16.125C16.125 14.6874 16.1244 15.0016 16.1048 15.2419C16.0859 15.4735 16.0531 15.5696 16.0251 15.6245L16.6933 15.965L17.3616 16.3055C17.5153 16.0039 17.5733 15.6884 17.5998 15.3641C17.6256 15.0485 17.625 14.6627 17.625 14.2083H16.875ZM15.965 16.6933L16.3055 17.3616C16.7602 17.1299 17.1299 16.7602 17.3616 16.3055L16.6933 15.965L16.0251 15.6245C15.9372 15.797 15.797 15.9372 15.6245 16.0251L15.965 16.6933ZM3.125 5.79167H3.875C3.875 5.31258 3.87558 4.99837 3.89522 4.75808C3.91413 4.52654 3.94693 4.43042 3.97491 4.37551L3.30666 4.03502L2.6384 3.69452C2.48472 3.99613 2.42669 4.31163 2.4002 4.63593C2.37442 4.95147 2.375 5.33733 2.375 5.79167H3.125ZM5.79167 3.125V2.375C5.33733 2.375 4.95147 2.37442 4.63593 2.4002C4.31163 2.42669 3.99613 2.48472 3.69452 2.6384L4.03502 3.30666L4.37551 3.97491C4.43042 3.94693 4.52654 3.91413 4.75808 3.89522C4.99837 3.87558 5.31258 3.875 5.79167 3.875V3.125ZM3.30666 4.03502L3.97491 4.37551C4.06279 4.20303 4.20303 4.06279 4.37551 3.97491L4.03502 3.30666L3.69452 2.6384C3.2398 2.87009 2.87009 3.2398 2.6384 3.69452L3.30666 4.03502Z" fill="black"/>
<path d="M7.29175 12.7087V10.5539C7.29175 10.3329 7.37955 10.1209 7.53583 9.96466L14.6549 2.84558C15.3058 2.1947 16.3611 2.1947 17.0119 2.84558L17.1549 2.98855C17.8058 3.63943 17.8058 4.6947 17.1549 5.34558L10.0358 12.4647C9.87955 12.6209 9.66758 12.7087 9.44657 12.7087H7.29175Z" stroke="black" stroke-width="1.5" stroke-linecap="square" stroke-linejoin="round"/>
</svg>
