<svg width="20" height="20" viewBox="0 0 20 20" fill="none" xmlns="http://www.w3.org/2000/svg">
<path d="M3.00977 14.6133C3.01078 14.6765 3.01172 14.7309 3.01172 14.7832V14.8086L3.03613 15.2588C3.049 15.4119 3.0688 15.5708 3.09863 15.7324H3.09766C3.15729 16.0788 3.2598 16.4116 3.42773 16.7422L3.43262 16.751L3.56348 16.9805C3.70319 17.206 3.8692 17.419 4.06152 17.6113L4.25879 17.7939C4.46321 17.9687 4.68939 18.1206 4.93457 18.2432V18.2422C5.26136 18.4076 5.58886 18.5099 5.92578 18.5723L5.93457 18.5742L6.17871 18.6094C6.41999 18.6389 6.65149 18.6509 6.86328 18.6572H6.86816L7.23633 18.6592V18.6601C7.39841 18.6645 7.55402 18.664 7.70117 18.664H12.3428C12.4889 18.664 12.6454 18.6645 12.8066 18.6601L12.8057 18.6592C12.9194 18.6592 13.0467 18.6603 13.1719 18.6572H13.1758L13.624 18.6338C13.7026 18.6274 13.7826 18.6194 13.8633 18.6094L14.1055 18.5732L14.1084 18.5723L14.3633 18.5176C14.6153 18.4546 14.8614 18.365 15.1074 18.2402L15.1084 18.2412C15.4248 18.081 15.7212 17.868 15.9756 17.6103H15.9766C16.1673 17.4186 16.3322 17.2057 16.4717 16.9805L16.6025 16.751L16.6074 16.7422L16.7217 16.4941C16.8221 16.2497 16.8898 16.0025 16.9346 15.748L16.9746 15.4961C17.0058 15.2489 17.0145 15.0139 17.0205 14.8115L17.0273 14.4326V6.23241C17.0253 6.14727 17.0242 5.9707 17.0205 5.85448C17.0125 5.58384 16.9995 5.25463 16.9346 4.916L16.9336 4.91698C16.8736 4.57996 16.7733 4.25261 16.6084 3.92674L16.6025 3.91503C16.4403 3.60608 16.2307 3.31409 15.9766 3.05858L15.9756 3.05956C15.7175 2.79811 15.4222 2.59041 15.1162 2.43163L15.1123 2.42967C14.7858 2.26245 14.4565 2.16175 14.1143 2.10253L14.1152 2.10155C13.7854 2.03835 13.4661 2.02128 13.1777 2.01659L13.1787 2.01561L12.7832 2.0078H12.3457L10.6465 1.99999H9.36621L7.69824 2.0078H7.25977C7.11972 2.0078 6.9835 2.0117 6.86133 2.01561V2.01659C6.57782 2.02122 6.26382 2.03899 5.9375 2.0996V2.09862C5.93417 2.09919 5.93106 2.10097 5.92773 2.10155C5.92599 2.10188 5.92362 2.10122 5.92188 2.10155V2.10253C5.66887 2.14669 5.42146 2.21336 5.17676 2.31444L4.92676 2.42967C4.68928 2.55136 4.46602 2.69947 4.26074 2.87401L4.06152 3.0576C3.80524 3.31391 3.59487 3.60609 3.43262 3.91503L3.42676 3.92674C3.25979 4.25674 3.15835 4.58813 3.09863 4.92967L3.09961 4.93065C3.06953 5.09318 3.04905 5.25385 3.03613 5.40819L3.01172 5.85546C3.01146 5.86397 3.01172 5.8733 3.01172 5.88182C3.01171 5.93605 3.01078 5.99047 3.00977 6.05272C3.00879 6.11301 3.00782 6.18158 3.00781 6.25194C3.00781 6.31153 3.00597 6.38293 3.00391 6.46776C3.00197 6.54723 3 6.64071 3 6.72557V12.2959L3.00781 13.9795V14.4121C3.00781 14.4825 3.00878 14.5523 3.00977 14.6133ZM4.70801 13.9717L4.69922 12.2871V6.72557C4.69922 6.66543 4.70106 6.59355 4.70312 6.50878C4.70505 6.42951 4.70801 6.33617 4.70801 6.25194C4.70801 6.19772 4.70895 6.1433 4.70996 6.08104C4.71094 6.02072 4.71191 5.95221 4.71191 5.88182C4.71774 5.70101 4.72765 5.53772 4.74707 5.38671L4.77051 5.23339L4.77344 5.22264H4.77246C4.80593 5.03111 4.8589 4.86615 4.93848 4.70604L5.00781 4.58299C5.08171 4.46407 5.16803 4.35541 5.26367 4.25975C5.3888 4.13463 5.53492 4.02906 5.70215 3.94335L5.82422 3.88671C5.90639 3.85266 5.99123 3.82458 6.08203 3.80272L6.22363 3.7744L6.23926 3.77147C6.33942 3.7525 6.44323 3.73928 6.55273 3.73046L6.90137 3.71581L6.91602 3.71483L7.25977 3.70702H7.70508L9.37305 3.70018H10.6387L12.3389 3.70702H12.7832C12.8879 3.70702 12.9996 3.71078 13.1221 3.71483L13.1377 3.71581C13.3854 3.71948 13.5994 3.7338 13.7959 3.77147L13.8145 3.7744L13.957 3.8037C14.0942 3.83652 14.2171 3.88196 14.3369 3.94335C14.5059 4.03149 14.6513 4.13677 14.7676 4.25487L14.7705 4.2578L14.8633 4.35839C14.9525 4.4633 15.0308 4.58066 15.0967 4.70604C15.1763 4.86615 15.2292 5.0311 15.2627 5.22264L15.2646 5.23631L15.2881 5.38475C15.3072 5.53714 15.3153 5.70468 15.3213 5.90624V5.90819L15.3281 6.25194H15.3271V14.4121H15.3281C15.3248 14.5622 15.3253 14.6326 15.3213 14.7549V14.7578C15.3153 14.9596 15.3072 15.1277 15.2881 15.2803L15.2646 15.4287C15.2637 15.4339 15.2626 15.4391 15.2617 15.4443C15.2274 15.6438 15.1738 15.8113 15.0918 15.9726H15.0908C15.0042 16.1361 14.8958 16.2851 14.7705 16.4111L14.7676 16.414C14.6469 16.5366 14.5008 16.6426 14.3408 16.7236L14.3398 16.7246C14.1775 16.8071 14.008 16.8631 13.8057 16.9004V16.8994C13.6067 16.9351 13.3834 16.9503 13.125 16.958V16.959L12.7832 16.9609H12.7607C12.6262 16.9646 12.4925 16.9648 12.3428 16.9648H7.70117L7.28223 16.9609C7.27474 16.9607 7.26726 16.9609 7.25977 16.9609C7.13587 16.9609 7.02489 16.9616 6.91309 16.959L6.91406 16.958C6.66163 16.9505 6.44121 16.9369 6.23438 16.9014L6.23535 16.9004C6.03396 16.8631 5.86282 16.8077 5.69922 16.7246L5.69434 16.7226C5.53735 16.6441 5.39265 16.5381 5.26367 16.4092C5.13843 16.2839 5.02998 16.1362 4.94336 15.9726L4.88672 15.8496C4.83549 15.7253 4.79918 15.5938 4.77344 15.4443L4.77148 15.4316L3.93555 15.5889L4.77051 15.4316C4.73419 15.2384 4.71974 15.0296 4.71191 14.7832L4.70996 14.5859C4.70895 14.5229 4.70801 14.4666 4.70801 14.4121V13.9717Z" fill="black"/>
<path d="M12.3306 7.93359L12.4175 7.92969C12.8462 7.88624 13.1812 7.52415 13.1812 7.08398C13.1812 6.64382 12.8462 6.28172 12.4175 6.23828L12.3306 6.23438H7.69775C7.22831 6.23438 6.84814 6.61454 6.84814 7.08398C6.84814 7.55343 7.22831 7.93359 7.69775 7.93359H12.3306Z" fill="black"/>
<path d="M12.3306 11.5205L12.4175 11.5166C12.8462 11.4732 13.1812 11.1111 13.1812 10.6709C13.1812 10.2307 12.8462 9.86864 12.4175 9.8252L12.3306 9.82129H7.69775C7.22831 9.82129 6.84814 10.2015 6.84814 10.6709C6.84814 11.1403 7.22831 11.5205 7.69775 11.5205H12.3306Z" fill="black"/>
</svg>
