<svg width="20" height="20" viewBox="0 0 20 20" fill="none" xmlns="http://www.w3.org/2000/svg">
<path d="M12.8228 10.6133L12.9097 10.6094C13.3382 10.5658 13.6724 10.2037 13.6724 9.76367C13.6724 9.32364 13.3382 8.96159 12.9097 8.91797L12.8228 8.91406H6.62256C6.15312 8.91406 5.77295 9.29423 5.77295 9.76367C5.77295 10.2331 6.15312 10.6133 6.62256 10.6133H12.8228Z" fill="black"/>
<path d="M8.87109 6.66248V12.8617C8.87109 13.3311 9.25126 13.7113 9.7207 13.7113C10.1901 13.7113 10.5703 13.3311 10.5703 12.8617V6.66248C10.5702 6.19313 10.1901 5.81287 9.7207 5.81287C9.25133 5.81287 8.87121 6.19313 8.87109 6.66248Z" fill="black"/>
<path d="M15.8232 9.76367C15.8232 13.1118 13.1096 15.8281 9.76367 15.8281C6.41611 15.8281 3.69922 13.1112 3.69922 9.76367C3.69925 6.41338 6.41589 3.7002 9.76367 3.7002C13.1099 3.70023 15.8232 6.41284 15.8232 9.76367ZM17.5234 9.76367C17.5234 5.4746 14.0494 2.00003 9.76367 2C5.47749 2 2.00003 5.47402 2 9.76367C2 14.0501 5.47723 17.5273 9.76367 17.5273C14.0496 17.5273 17.5234 14.0495 17.5234 9.76367Z" fill="black"/>
</svg>
