<svg width="18" height="18" viewBox="0 0 18 18" fill="none" xmlns="http://www.w3.org/2000/svg">
<path d="M1.92422 4.20937H7.12548C7.28264 4.20937 7.41698 4.15361 7.52851 4.04208C7.64003 3.93055 7.6958 3.79367 7.6958 3.63145C7.6958 3.4743 7.64003 3.33996 7.52851 3.22843C7.41698 3.1169 7.28264 3.06114 7.12548 3.06114H1.92422C1.762 3.06114 1.62512 3.1169 1.51359 3.22843C1.397 3.33996 1.3387 3.4743 1.3387 3.63145C1.3387 3.79367 1.397 3.93055 1.51359 4.04208C1.62512 4.15361 1.762 4.20937 1.92422 4.20937ZM1.92422 8.19396H7.12548C7.28264 8.19396 7.41698 8.1382 7.52851 8.02667C7.64003 7.91514 7.6958 7.77827 7.6958 7.61604C7.6958 7.45382 7.64003 7.31948 7.52851 7.21302C7.41698 7.10149 7.28264 7.04573 7.12548 7.04573H1.92422C1.762 7.04573 1.62512 7.10149 1.51359 7.21302C1.397 7.31948 1.3387 7.45382 1.3387 7.61604C1.3387 7.77827 1.397 7.91514 1.51359 8.02667C1.62512 8.1382 1.762 8.19396 1.92422 8.19396ZM1.92422 12.1786H16.0908C16.248 12.1786 16.3823 12.1228 16.4938 12.0113C16.6054 11.8997 16.6611 11.7629 16.6611 11.6006C16.6611 11.4384 16.6054 11.3041 16.4938 11.1976C16.3823 11.0861 16.248 11.0303 16.0908 11.0303H1.92422C1.762 11.0303 1.62512 11.0861 1.51359 11.1976C1.397 11.3041 1.3387 11.4384 1.3387 11.6006C1.3387 11.7629 1.397 11.8997 1.51359 12.0113C1.62512 12.1228 1.762 12.1786 1.92422 12.1786ZM1.92422 16.1555H16.0908C16.248 16.1555 16.3823 16.0998 16.4938 15.9883C16.6054 15.8818 16.6611 15.7475 16.6611 15.5852C16.6611 15.423 16.6054 15.2861 16.4938 15.1746C16.3823 15.0631 16.248 15.0073 16.0908 15.0073H1.92422C1.762 15.0073 1.62512 15.0631 1.51359 15.1746C1.397 15.2861 1.3387 15.423 1.3387 15.5852C1.3387 15.7475 1.397 15.8818 1.51359 15.9883C1.62512 16.0998 1.762 16.1555 1.92422 16.1555ZM12.7906 9.57032C13.3178 9.57032 13.8146 9.47147 14.281 9.27376C14.7474 9.07098 15.158 8.79216 15.5129 8.4373C15.8678 8.08244 16.1466 7.67181 16.3494 7.20542C16.5521 6.73903 16.6535 6.23969 16.6535 5.70739C16.6535 5.1751 16.5521 4.67829 16.3494 4.21697C16.1466 3.75058 15.8678 3.33996 15.5129 2.9851C15.158 2.62516 14.7474 2.34634 14.281 2.14863C13.8146 1.94586 13.3178 1.84447 12.7906 1.84447C12.2583 1.84447 11.759 1.94586 11.2926 2.14863C10.8262 2.34634 10.4156 2.62263 10.0607 2.97749C9.70584 3.33235 9.42955 3.74298 9.23184 4.20937C9.02906 4.67576 8.92768 5.1751 8.92768 5.70739C8.92768 6.23462 9.02906 6.73142 9.23184 7.19781C9.43462 7.6642 9.71598 8.07483 10.0759 8.42969C10.4308 8.78455 10.8414 9.06337 11.3078 9.26615C11.7742 9.46893 12.2684 9.57032 12.7906 9.57032ZM12.7906 8.12553C12.6487 8.12553 12.5371 8.08244 12.456 7.99625C12.3698 7.91007 12.3267 7.79855 12.3267 7.66167V6.17125H10.8363C10.6995 6.17125 10.5879 6.13069 10.5017 6.04958C10.4156 5.9634 10.3725 5.84934 10.3725 5.70739C10.3725 5.56545 10.4156 5.45392 10.5017 5.37281C10.5879 5.28663 10.6995 5.24354 10.8363 5.24354H12.3267V3.75312C12.3267 3.61624 12.3698 3.50471 12.456 3.41853C12.5371 3.33235 12.6487 3.28926 12.7906 3.28926C12.9325 3.28926 13.0466 3.33235 13.1328 3.41853C13.2139 3.50471 13.2545 3.61624 13.2545 3.75312V5.24354H14.7449C14.8818 5.24354 14.9933 5.28663 15.0795 5.37281C15.1656 5.45392 15.2087 5.56545 15.2087 5.70739C15.2087 5.84934 15.1656 5.9634 15.0795 6.04958C14.9933 6.13069 14.8818 6.17125 14.7449 6.17125H13.2545V7.66167C13.2545 7.79855 13.2139 7.91007 13.1328 7.99625C13.0466 8.08244 12.9325 8.12553 12.7906 8.12553Z" fill="black"/>
</svg>
