<svg width="20" height="20" viewBox="0 0 20 20" fill="none" xmlns="http://www.w3.org/2000/svg">
<path d="M7.32967 9.75974L9.38066 11.7987L7.86867 11.8697L11.8257 6.55274C12.0177 6.29474 12.3807 6.24074 12.6387 6.43174C12.8807 6.61174 12.9397 6.94373 12.7947 7.19773L9.43565 12.9087C9.14265 13.4987 8.25966 13.5377 7.91966 12.9787L6.35765 10.5447C5.95465 9.92374 6.81467 9.24074 7.32967 9.75974Z" fill="black"/>
<path d="M15.8232 9.76367C15.8232 13.1118 13.1096 15.8281 9.76367 15.8281C6.41611 15.8281 3.69922 13.1112 3.69922 9.76367C3.69925 6.41338 6.41589 3.7002 9.76367 3.7002C13.1099 3.70023 15.8232 6.41284 15.8232 9.76367ZM17.5234 9.76367C17.5234 5.4746 14.0494 2.00003 9.76367 2C5.47749 2 2.00003 5.47402 2 9.76367C2 14.0501 5.47723 17.5273 9.76367 17.5273C14.0496 17.5273 17.5234 14.0495 17.5234 9.76367Z" fill="black"/>
</svg>
