<svg width="20" height="20" viewBox="0 0 20 20" fill="none" xmlns="http://www.w3.org/2000/svg">
<path d="M15.5996 6.79395L15.7402 6.7793C16.0592 6.71402 16.2988 6.43202 16.2988 6.09375C16.2988 5.75548 16.0592 5.47348 15.7402 5.4082L15.5996 5.39355H3.7002C3.3136 5.39355 3 5.70715 3 6.09375C3 6.48035 3.3136 6.79395 3.7002 6.79395H15.5996Z" fill="#FF3B30"/>
<path d="M13.0127 6.79395C13.2477 6.79395 13.467 6.67555 13.5966 6.47949C13.7099 6.30809 13.7419 6.09721 13.6865 5.90234L13.6572 5.81934L12.6142 3.37305L12.6152 3.37207C12.2867 2.595 11.5836 2 10.7158 2H8.58687C7.76841 2.00009 7.10486 2.52395 6.75191 3.22559L6.68551 3.36816V3.37012L5.64254 5.81934C5.55048 6.03549 5.57263 6.28347 5.70211 6.47949C5.83171 6.67555 6.05107 6.79395 6.28609 6.79395H13.0127ZM7.97262 3.9209L8.04 3.78613C8.20601 3.49906 8.42867 3.3995 8.58687 3.39941H10.7158C10.8939 3.39941 11.1616 3.5303 11.3252 3.91699L11.3261 3.91895L11.9541 5.39355H7.34469L7.97262 3.9209Z" fill="#FF3B30"/>
<path d="M12.4656 18.7908C13.484 18.7908 14.4241 18.07 14.573 17.0339L14.7068 16.0427C14.8338 15.0294 14.9406 13.9484 15.0232 12.8074L15.0896 11.8259C15.1296 11.1695 15.1611 10.5095 15.1853 9.84839L15.2166 8.8562L15.2068 8.7146C15.1504 8.39379 14.8742 8.14573 14.5359 8.13647C14.198 8.12737 13.9098 8.35971 13.8357 8.67651L13.8171 8.81714L13.7859 9.79663C13.7501 10.7742 13.6994 11.7452 13.6267 12.7019V12.7039C13.5188 14.1954 13.3687 15.5784 13.1873 16.8337V16.8347C13.1475 17.1119 12.8607 17.3904 12.4656 17.3904H6.74293C6.34794 17.3903 6.06205 17.1119 6.02222 16.8347C5.84455 15.578 5.6937 14.1943 5.58179 12.7019C5.48882 11.4255 5.43101 10.1251 5.39625 8.81812C5.38597 8.43167 5.06393 8.12623 4.6775 8.13647C4.29104 8.14675 3.98558 8.46876 3.99586 8.85522C4.03108 10.1795 4.09135 11.5025 4.18629 12.8054V12.8074L4.27906 13.9275C4.37893 15.0275 4.4988 16.0651 4.63551 17.032L4.63648 17.033L4.67262 17.2234C4.90179 18.1568 5.78783 18.7907 6.74293 18.7908H12.4656Z" fill="#FF3B30"/>
</svg>
