<svg width="25" height="24" viewBox="0 0 25 24" fill="none" xmlns="http://www.w3.org/2000/svg">
<path d="M12.5963 1.81596L14.3517 6.90106C14.7713 8.11874 15.7218 9.07916 16.9292 9.50792L22.1699 11.3945C23.2317 11.7546 23.2317 13.2639 22.1699 13.624L16.9292 15.5106C15.7218 15.9479 14.7713 16.9083 14.3517 18.1174L12.5963 23.2025C12.2281 24.2659 10.7381 24.2659 10.3699 23.2025L8.61447 18.1174C8.19488 16.8997 7.24438 15.9393 6.03698 15.5106L0.796368 13.6326C-0.265456 13.2724 -0.265456 11.7632 0.796368 11.403L6.03698 9.5165C7.24438 9.07916 8.19488 8.11874 8.61447 6.90963L10.3699 1.82453C10.7381 0.761207 12.2281 0.761207 12.5963 1.82453V1.81596Z" fill="white"/>
<path d="M20.62 6.84302C22.5069 6.84302 24.0366 5.31116 24.0366 3.42151C24.0366 1.53186 22.5069 0 20.62 0C18.733 0 17.2033 1.53186 17.2033 3.42151C17.2033 5.31116 18.733 6.84302 20.62 6.84302Z" fill="white"/>
</svg>
