<svg width="16" height="16" viewBox="0 0 16 16" fill="none" xmlns="http://www.w3.org/2000/svg">
<path d="M1.58545 6.95605C1.05973 6.95605 0.664062 6.82324 0.398438 6.55762C0.132812 6.29199 0 5.88525 0 5.3374V1.61865C0 1.07633 0.132812 0.672363 0.398438 0.406738C0.664062 0.135579 1.05973 0 1.58545 0H5.37061C5.89632 0 6.29199 0.135579 6.55762 0.406738C6.82324 0.672363 6.95605 1.07633 6.95605 1.61865V5.3374C6.95605 5.88525 6.82324 6.29199 6.55762 6.55762C6.29199 6.82324 5.89632 6.95605 5.37061 6.95605H1.58545ZM1.60205 5.78564H5.3457C5.48958 5.78564 5.59749 5.74967 5.66943 5.67773C5.74691 5.60026 5.78564 5.48405 5.78564 5.3291V1.61865C5.78564 1.46924 5.74691 1.35856 5.66943 1.28662C5.59749 1.20915 5.48958 1.17041 5.3457 1.17041H1.60205C1.45817 1.17041 1.35026 1.20915 1.27832 1.28662C1.20638 1.35856 1.17041 1.46924 1.17041 1.61865V5.3291C1.17041 5.48405 1.20638 5.60026 1.27832 5.67773C1.35026 5.74967 1.45817 5.78564 1.60205 5.78564ZM9.91943 6.95605C9.38818 6.95605 8.98975 6.82324 8.72412 6.55762C8.4585 6.29199 8.32568 5.88525 8.32568 5.3374V1.61865C8.32568 1.07633 8.4585 0.672363 8.72412 0.406738C8.98975 0.135579 9.38818 0 9.91943 0H13.6963C14.222 0 14.6177 0.135579 14.8833 0.406738C15.1489 0.672363 15.2817 1.07633 15.2817 1.61865V5.3374C15.2817 5.88525 15.1489 6.29199 14.8833 6.55762C14.6177 6.82324 14.222 6.95605 13.6963 6.95605H9.91943ZM9.93604 5.78564H13.6797C13.8291 5.78564 13.937 5.74967 14.0034 5.67773C14.0754 5.60026 14.1113 5.48405 14.1113 5.3291V1.61865C14.1113 1.46924 14.0754 1.35856 14.0034 1.28662C13.937 1.20915 13.8291 1.17041 13.6797 1.17041H9.93604C9.78662 1.17041 9.67594 1.20915 9.604 1.28662C9.53206 1.35856 9.49609 1.46924 9.49609 1.61865V5.3291C9.49609 5.48405 9.53206 5.60026 9.604 5.67773C9.67594 5.74967 9.78662 5.78564 9.93604 5.78564ZM1.58545 15.2817C1.05973 15.2817 0.664062 15.1489 0.398438 14.8833C0.132812 14.6177 0 14.2109 0 13.6631V9.95264C0 9.40479 0.132812 8.99805 0.398438 8.73242C0.664062 8.4668 1.05973 8.33398 1.58545 8.33398H5.37061C5.89632 8.33398 6.29199 8.4668 6.55762 8.73242C6.82324 8.99805 6.95605 9.40479 6.95605 9.95264V13.6631C6.95605 14.2109 6.82324 14.6177 6.55762 14.8833C6.29199 15.1489 5.89632 15.2817 5.37061 15.2817H1.58545ZM1.60205 14.1113H5.3457C5.48958 14.1113 5.59749 14.0754 5.66943 14.0034C5.74691 13.9315 5.78564 13.8208 5.78564 13.6714V9.95264C5.78564 9.80322 5.74691 9.69255 5.66943 9.62061C5.59749 9.54313 5.48958 9.50439 5.3457 9.50439H1.60205C1.45817 9.50439 1.35026 9.54313 1.27832 9.62061C1.20638 9.69255 1.17041 9.80322 1.17041 9.95264V13.6714C1.17041 13.8208 1.20638 13.9315 1.27832 14.0034C1.35026 14.0754 1.45817 14.1113 1.60205 14.1113ZM9.91943 15.2817C9.38818 15.2817 8.98975 15.1489 8.72412 14.8833C8.4585 14.6177 8.32568 14.2109 8.32568 13.6631V9.95264C8.32568 9.40479 8.4585 8.99805 8.72412 8.73242C8.98975 8.4668 9.38818 8.33398 9.91943 8.33398H13.6963C14.222 8.33398 14.6177 8.4668 14.8833 8.73242C15.1489 8.99805 15.2817 9.40479 15.2817 9.95264V13.6631C15.2817 14.2109 15.1489 14.6177 14.8833 14.8833C14.6177 15.1489 14.222 15.2817 13.6963 15.2817H9.91943ZM9.93604 14.1113H13.6797C13.8291 14.1113 13.937 14.0754 14.0034 14.0034C14.0754 13.9315 14.1113 13.8208 14.1113 13.6714V9.95264C14.1113 9.80322 14.0754 9.69255 14.0034 9.62061C13.937 9.54313 13.8291 9.50439 13.6797 9.50439H9.93604C9.78662 9.50439 9.67594 9.54313 9.604 9.62061C9.53206 9.69255 9.49609 9.80322 9.49609 9.95264V13.6714C9.49609 13.8208 9.53206 13.9315 9.604 14.0034C9.67594 14.0754 9.78662 14.1113 9.93604 14.1113Z" fill="black"/>
</svg>
