<svg width="20" height="20" viewBox="0 0 20 20" fill="none" xmlns="http://www.w3.org/2000/svg">
<path d="M15.8076 5.69922L15.8945 5.69531C16.3231 5.65178 16.6572 5.28971 16.6572 4.84961C16.6572 4.40951 16.3231 4.04744 15.8945 4.00391L15.8076 4H3.84961C3.38017 4 3 4.38017 3 4.84961C3 5.31905 3.38017 5.69922 3.84961 5.69922H15.8076Z" fill="black"/>
<path d="M14.8076 10.5542L14.8945 10.5503C15.3231 10.5068 15.6572 10.1447 15.6572 9.70459C15.6572 9.26449 15.3231 8.90242 14.8945 8.85889L14.8076 8.85498H3.84961C3.38017 8.85498 3 9.23515 3 9.70459C3 10.174 3.38017 10.5542 3.84961 10.5542H14.8076Z" fill="black"/>
<path d="M13.8076 15.4133L13.8945 15.4094C14.3231 15.3659 14.6572 15.0038 14.6572 14.5637C14.6572 14.1236 14.3231 13.7615 13.8945 13.718L13.8076 13.7141H3.84961C3.38017 13.7141 3 14.0943 3 14.5637C3 15.0332 3.38017 15.4133 3.84961 15.4133H13.8076Z" fill="black"/>
</svg>
