<svg width="118" height="33" viewBox="0 0 118 33" fill="none" xmlns="http://www.w3.org/2000/svg">
<path d="M28.6078 1.03062H24.1841V26.4883H28.6078V1.03062Z" fill="white"/>
<path d="M55.4035 6.58742H50.9797V26.4943H55.4035V6.58742Z" fill="white"/>
<path d="M68.0597 22.4683C67.3365 22.7697 66.547 22.6913 65.9021 22.2574C65.2512 21.8234 64.8775 21.1243 64.8775 20.3408V10.4266H69.47V6.59345H64.8775V1.03062H60.4538V6.59345H57.603V10.4266H60.4538V20.3408C60.4538 22.5889 61.5687 24.6802 63.4431 25.9338C64.5701 26.6872 65.8659 27.0729 67.1798 27.0729C68.0477 27.0729 68.9216 26.9041 69.7533 26.5606L70.3198 26.3255L68.6262 22.2393L68.0597 22.4743V22.4683Z" fill="white"/>
<path d="M21.7129 15.0191C21.5141 13.5847 21.044 12.2708 20.3026 11.0835C19.5674 9.89619 18.6392 8.89573 17.5182 8.08812C16.3972 7.27449 15.1496 6.68988 13.7695 6.32224C12.3893 5.96062 10.9489 5.88227 9.43614 6.09321C7.95352 6.30416 6.59144 6.77425 5.35592 7.50351C4.12041 8.23879 3.07775 9.14283 2.24001 10.2337C1.39624 11.3185 0.781499 12.536 0.38975 13.88C-0.00199873 15.224 -0.0984292 16.6162 0.100459 18.0506C0.299347 19.485 0.775472 20.7989 1.52884 21.9801C2.27617 23.1674 3.20432 24.1619 4.31327 24.9755C5.42222 25.7891 6.66979 26.3738 8.062 26.7354C9.45422 27.097 10.8886 27.1753 12.3773 26.9644C13.5224 26.8017 14.6012 26.4822 15.6137 26.0061C16.6262 25.53 17.5303 24.9333 18.3198 24.2101C19.1093 23.4929 19.7843 22.6793 20.3388 21.7692C20.7667 21.0701 21.0801 20.3167 21.3272 19.5453H16.6986C16.2526 20.4493 15.6077 21.2207 14.7519 21.8475C13.896 22.4743 12.9197 22.8661 11.8288 23.0228C11.0755 23.1313 10.3402 23.1011 9.62297 22.9444C8.90577 22.7817 8.24281 22.5165 7.62807 22.1429C7.01935 21.7692 6.4709 21.3051 6.0008 20.7507C5.52467 20.1962 5.15101 19.5694 4.8798 18.8582L21.8154 16.4776C21.8154 15.9834 21.7853 15.4892 21.719 15.001L21.7129 15.0191ZM4.48202 15.5796C4.57845 14.8684 4.78939 14.1994 5.11484 13.5726C5.43427 12.9458 5.83205 12.3853 6.3142 11.8971C6.79032 11.4089 7.3448 10.9991 7.96557 10.6797C8.59237 10.3542 9.26738 10.1433 9.99664 10.0408C10.7259 9.93838 11.4371 9.95646 12.1241 10.0951C12.8112 10.2337 13.4621 10.4748 14.0648 10.8063C14.6675 11.1438 15.2099 11.5717 15.68 12.09C16.1501 12.6083 16.5298 13.1929 16.8191 13.8438L4.48202 15.5796Z" fill="white"/>
<path d="M88.1416 8.22678V9.24532C87.3521 8.23883 86.3878 7.44328 85.2487 6.87072C84.423 6.43678 83.537 6.17762 82.5788 6.05709C82.404 6.03298 82.2292 6.02695 82.0605 6.0149C81.8736 6.00284 81.6928 6.00285 81.506 6.00285C80.0113 6.00285 78.601 6.27405 77.2871 6.82853C75.9673 7.383 74.8161 8.1424 73.8398 9.09465C72.8513 10.059 72.0859 11.1739 71.5194 12.4577C70.9468 13.7354 70.6636 15.0914 70.6636 16.5439C70.6636 17.9964 70.9468 19.3645 71.5194 20.6422C72.0859 21.9079 72.8513 23.0409 73.8398 23.9932C74.8161 24.9454 75.9673 25.7048 77.2871 26.2593C78.601 26.8138 80.0113 27.097 81.506 27.097C81.6928 27.097 81.8736 27.097 82.0605 27.085C83.2116 27.0066 84.2723 26.7294 85.2487 26.2291C86.3878 25.6445 87.3521 24.855 88.1416 23.8425V26.5004H92.3363V6.59348H88.1416V8.2328V8.22678ZM87.557 19.1114C87.2074 19.9009 86.7434 20.594 86.1467 21.1906C85.5621 21.7753 84.869 22.2454 84.0855 22.5889C83.296 22.9385 82.4582 23.1012 81.5783 23.1012C80.6984 23.1012 79.8546 22.9385 79.0711 22.5889C78.2816 22.2393 77.5945 21.7753 76.9979 21.1906C76.4132 20.594 75.9492 19.9009 75.5996 19.1114C75.2501 18.3098 75.0813 17.454 75.0813 16.5439C75.0813 15.6338 75.2561 14.7901 75.5996 13.9825C75.9492 13.1809 76.4132 12.4878 76.9979 11.9032C77.5945 11.3065 78.2756 10.8425 79.0711 10.5049C79.8546 10.1554 80.6863 9.98663 81.5783 9.98663C82.4703 9.98663 83.2899 10.1614 84.0855 10.5049C84.869 10.8425 85.5621 11.3065 86.1467 11.9032C86.7434 12.4878 87.2074 13.1809 87.557 13.9825C87.8945 14.784 88.0693 15.6278 88.0693 16.5439C88.0693 17.46 87.8945 18.3098 87.557 19.1114Z" fill="white"/>
<path d="M116.926 14.9467C116.848 14.4284 116.733 13.9161 116.57 13.428C116.516 13.2652 116.45 13.1025 116.396 12.9398C116.341 12.7771 116.275 12.6143 116.203 12.4516C115.92 11.8128 115.582 11.2161 115.196 10.6496C115.003 10.3663 114.793 10.0951 114.576 9.83593C114.359 9.57677 114.13 9.32364 113.882 9.08859H113.87C112.894 8.13634 111.743 7.37695 110.423 6.82248C109.109 6.268 107.699 5.99679 106.204 5.99679C106.017 5.99679 105.837 5.99679 105.65 6.00884C105.475 6.0209 105.3 6.03295 105.131 6.05103H105.101C104.155 6.18362 103.281 6.43073 102.468 6.86466C101.328 7.43722 100.364 8.23277 99.5746 9.23926V6.5814H95.3799V32.033H99.8036V24.2463C100.533 25.0478 101.419 25.7108 102.437 26.199C102.449 26.211 102.462 26.211 102.468 26.2231C102.48 26.2351 102.492 26.2351 102.498 26.2472C102.54 26.2713 102.594 26.2894 102.636 26.3135C102.775 26.3798 102.92 26.4461 103.058 26.5003C103.07 26.5124 103.082 26.5124 103.088 26.5124C103.221 26.5666 103.347 26.6088 103.48 26.651C103.667 26.7294 103.872 26.7836 104.065 26.8258C104.306 26.9041 104.553 26.9463 104.8 26.9885C104.975 27.0186 105.15 27.0427 105.33 27.0548C105.427 27.0789 105.535 27.0789 105.644 27.0849H105.722C105.885 27.097 106.035 27.097 106.198 27.097C107.693 27.097 109.103 26.8137 110.417 26.2593C111.737 25.7048 112.888 24.9454 113.864 23.9931H113.876C114.124 23.7521 114.353 23.505 114.57 23.2458C114.787 22.9866 114.991 22.7154 115.19 22.4322C115.582 21.8777 115.92 21.275 116.197 20.6422C116.275 20.4794 116.335 20.3167 116.39 20.154C116.444 19.9913 116.51 19.8285 116.564 19.6658C116.727 19.1656 116.848 18.6593 116.92 18.135C116.998 17.6167 117.041 17.0863 117.041 16.5439C117.041 16.0015 116.998 15.4711 116.92 14.9528L116.926 14.9467ZM112.099 19.1113C111.749 19.9009 111.285 20.594 110.7 21.1906C110.104 21.7752 109.423 22.2453 108.627 22.5889C107.844 22.9384 107.012 23.1011 106.12 23.1011C105.228 23.1011 104.408 22.9384 103.613 22.5889C102.829 22.2393 102.136 21.7752 101.551 21.1906C101.401 21.0399 101.256 20.8893 101.13 20.7266C100.738 20.2384 100.4 19.708 100.153 19.1113C100.069 18.9064 99.9905 18.7075 99.9242 18.5026C99.7313 17.8758 99.6289 17.2249 99.6289 16.5378C99.6289 15.8508 99.7253 15.2059 99.9242 14.5851C99.9905 14.3802 100.063 14.1753 100.153 13.9764C100.4 13.3677 100.738 12.8373 101.13 12.3491C101.262 12.1985 101.401 12.0478 101.551 11.8911C102.136 11.2944 102.829 10.8304 103.613 10.4929C104.402 10.1433 105.24 9.97455 106.12 9.97455C107 9.97455 107.844 10.1493 108.627 10.4929C109.417 10.8304 110.104 11.2944 110.7 11.8911C111.285 12.4757 111.749 13.1688 112.099 13.9704C112.448 14.772 112.617 15.6157 112.617 16.5318C112.617 17.4479 112.442 18.2977 112.099 19.0993V19.1113Z" fill="white"/>
<path d="M55.4035 0H50.9797V4.38156H55.4035V0Z" fill="white"/>
<path d="M40.7519 15.7845L48.4483 6.58743H42.7107L36.069 14.5912V1.03062H31.6453V26.4883H36.069V16.9778L43.9582 26.4883H49.7079L40.7519 15.7845Z" fill="white"/>
</svg>
