<svg width="34" height="34" viewBox="0 0 34 34" fill="none" xmlns="http://www.w3.org/2000/svg">
<path d="M16.6514 33.3027C14.3493 33.3027 12.1911 32.8711 10.1768 32.0078C8.16243 31.1445 6.3916 29.9492 4.86426 28.4219C3.34798 26.8945 2.1582 25.1292 1.29492 23.126C0.431641 21.1117 0 18.9535 0 16.6514C0 14.3493 0.431641 12.1966 1.29492 10.1934C2.1582 8.17904 3.34798 6.4082 4.86426 4.88086C6.3916 3.34245 8.16243 2.14714 10.1768 1.29492C12.1911 0.431641 14.3493 0 16.6514 0C18.9424 0 21.0951 0.431641 23.1094 1.29492C25.1237 2.14714 26.889 3.34245 28.4053 4.88086C29.9326 6.4082 31.1279 8.17904 31.9912 10.1934C32.8656 12.1966 33.3027 14.3493 33.3027 16.6514C33.3027 18.9535 32.8656 21.1117 31.9912 23.126C31.1279 25.1292 29.9326 26.8945 28.4053 28.4219C26.889 29.9492 25.1237 31.1445 23.1094 32.0078C21.0951 32.8711 18.9424 33.3027 16.6514 33.3027ZM16.6514 31.1611C18.6546 31.1611 20.5306 30.7848 22.2793 30.0322C24.0391 29.2796 25.583 28.2393 26.9111 26.9111C28.2393 25.583 29.2796 24.0446 30.0322 22.2959C30.7848 20.5361 31.1611 18.6546 31.1611 16.6514C31.1611 14.6481 30.7848 12.7666 30.0322 11.0068C29.2796 9.24707 28.2393 7.70866 26.9111 6.3916C25.583 5.06348 24.0391 4.02311 22.2793 3.27051C20.5306 2.5179 18.6546 2.1416 16.6514 2.1416C14.6481 2.1416 12.7666 2.5179 11.0068 3.27051C9.25814 4.02311 7.71973 5.06348 6.3916 6.3916C5.06348 7.70866 4.02311 9.24707 3.27051 11.0068C2.5179 12.7666 2.1416 14.6481 2.1416 16.6514C2.1416 18.6546 2.5179 20.5361 3.27051 22.2959C4.02311 24.0446 5.06348 25.583 6.3916 26.9111C7.71973 28.2393 9.25814 29.2796 11.0068 30.0322C12.7666 30.7848 14.6481 31.1611 16.6514 31.1611ZM8.91504 25.1016C8.63835 25.1016 8.43359 25.0241 8.30078 24.8691C8.17904 24.7031 8.11816 24.4873 8.11816 24.2217C8.11816 23.7679 8.28971 23.1758 8.63281 22.4453C8.97591 21.7038 9.49609 20.9622 10.1934 20.2207C10.9017 19.4681 11.7871 18.8372 12.8496 18.3281C13.9232 17.819 15.1849 17.5645 16.6348 17.5645C18.0957 17.5645 19.3574 17.819 20.4199 18.3281C21.4935 18.8372 22.3789 19.4681 23.0762 20.2207C23.7734 20.9622 24.2936 21.7038 24.6367 22.4453C24.9798 23.1758 25.1514 23.7679 25.1514 24.2217C25.1514 24.4873 25.085 24.7031 24.9521 24.8691C24.8304 25.0241 24.6312 25.1016 24.3545 25.1016H8.91504ZM16.6348 16.2197C15.849 16.2197 15.1351 16.015 14.4932 15.6055C13.8512 15.196 13.3421 14.6481 12.9658 13.9619C12.5895 13.2646 12.4014 12.4733 12.4014 11.5879C12.4014 10.7689 12.5895 10.0163 12.9658 9.33008C13.3421 8.63281 13.8512 8.07943 14.4932 7.66992C15.1351 7.26042 15.849 7.05566 16.6348 7.05566C17.4206 7.05566 18.1344 7.26042 18.7764 7.66992C19.4183 8.07943 19.9274 8.63281 20.3037 9.33008C20.6911 10.0163 20.8848 10.7689 20.8848 11.5879C20.8848 12.4733 20.6911 13.2646 20.3037 13.9619C19.9274 14.6592 19.4183 15.2126 18.7764 15.6221C18.1344 16.0205 17.4206 16.2197 16.6348 16.2197Z" fill="black"/>
</svg>
