<svg width="29" height="28" viewBox="0 0 29 28" fill="none" xmlns="http://www.w3.org/2000/svg">
<path d="M8.31461 6.35455C8.31461 6.01015 8.58338 5.75816 8.87878 5.75816C8.96558 5.75816 9.0538 5.78055 9.1406 5.82955L13.1222 8.06674V20.65C13.1222 20.6667 13.1278 20.678 13.1278 20.6934L8.9166 18.3259C8.5442 18.1173 8.31461 17.7128 8.31461 17.2648V6.35455ZM18.6564 5.82955C18.7446 5.78055 18.8314 5.75816 18.9182 5.75816C19.2136 5.75816 19.4824 6.01015 19.4824 6.35455V17.2648C19.4824 17.7128 19.2528 18.1173 18.8804 18.3259L14.6636 20.6934C14.6692 20.6822 14.6748 20.6667 14.6748 20.65V8.06674L18.6564 5.82955ZM21.7952 6.19634C21.7084 6.19634 21.609 6.20193 21.5166 6.21313L21.0294 6.25654C20.9748 5.11834 20.0564 4.19995 18.9182 4.19995C18.564 4.19995 18.2084 4.29236 17.8962 4.47296L13.8992 6.71575L9.9008 4.47296C9.5886 4.29236 9.23438 4.19995 8.87878 4.19995C8.31458 4.19995 7.76861 4.43515 7.36821 4.83975C6.99721 5.22195 6.78859 5.72034 6.76759 6.25654L6.286 6.21313C6.188 6.20193 6.09419 6.19634 6.00739 6.19634C5.29619 6.19634 4.6284 6.45816 4.1258 6.92856C3.5896 7.43256 3.2998 8.11016 3.2998 8.84236V19.0638C3.2998 20.524 4.47581 21.7882 5.97941 21.9296L11.0054 22.4111C11.963 22.5035 12.936 22.5526 13.8992 22.5526C14.861 22.5526 15.834 22.5035 16.7916 22.4111L21.8176 21.9296C23.3212 21.7882 24.4972 20.524 24.4972 19.0638V8.83813C24.4972 7.35553 23.31 6.19634 21.7952 6.19634Z" fill="#F15A24"/>
</svg>
