<svg width="20" height="20" viewBox="0 0 20 20" fill="none" xmlns="http://www.w3.org/2000/svg">
<path d="M17.52 12.965C17.52 13.504 17.051 13.988 16.477 14.047L11.899 15.172C11.422 15.289 10.961 14.93 10.961 14.433V6.07001C10.961 5.48001 11.364 4.96501 11.938 4.82001L16.477 3.703C16.512 3.699 16.547 3.69901 16.582 3.69901C17.106 3.69901 17.52 4.078 17.52 4.582V12.965ZM3.742 14.047C3.172 13.988 2.69901 13.504 2.69901 12.965V4.59C2.69901 4.082 3.11399 3.69901 3.64099 3.69901C3.67599 3.69901 3.715 3.699 3.75 3.703L8.28198 4.82001C8.85598 4.96501 9.26199 5.48001 9.26199 6.07001V14.433C9.26199 14.93 8.79698 15.289 8.32098 15.172L3.742 14.047ZM16.582 2C16.492 2 16.403 2.00399 16.313 2.01199C16.231 2.01899 16.149 2.03499 16.071 2.05499L10.11 3.51901L4.15698 2.05499C4.07498 2.03499 3.992 2.01899 3.91 2.01199C3.821 2.00399 3.73099 2 3.64099 2C2.95299 2 2.30099 2.254 1.81299 2.715C1.28899 3.203 1 3.871 1 4.59V12.965C1 14.328 2.05499 15.512 3.42999 15.719L8.32098 16.922C8.90698 17.066 9.50799 17.14 10.11 17.14C10.711 17.14 11.317 17.066 11.899 16.922L16.789 15.719C18.164 15.512 19.219 14.328 19.219 12.965V4.582C19.219 3.133 18.063 2 16.582 2Z" fill="black"/>
</svg>
