<svg width="20" height="20" viewBox="0 0 20 20" fill="none" xmlns="http://www.w3.org/2000/svg">
<path d="M2 10.0894C2 8.72249 2.19922 7.48291 2.59766 6.37061C3.00163 5.25277 3.57438 4.29541 4.31592 3.49854C5.05745 2.69613 5.94564 2.0791 6.98047 1.64746C8.02083 1.21582 9.17741 1 10.4502 1C11.7174 1 12.8685 1.21582 13.9033 1.64746C14.9437 2.0791 15.8346 2.69613 16.5762 3.49854C17.3232 4.29541 17.896 5.25277 18.2944 6.37061C18.6984 7.48291 18.9004 8.72249 18.9004 10.0894C18.9004 10.925 18.8229 11.7772 18.668 12.646C18.513 13.5093 18.2889 14.3532 17.9956 15.1777C17.7023 16.0023 17.3537 16.7715 16.9497 17.4854C16.8501 17.6624 16.709 17.7731 16.5264 17.8174C16.3493 17.8672 16.1667 17.8395 15.9785 17.7344C15.8014 17.6403 15.6908 17.502 15.6465 17.3193C15.6077 17.1423 15.641 16.9569 15.7461 16.7632C16.2995 15.7505 16.7284 14.6659 17.0327 13.5093C17.3371 12.3472 17.4893 11.2072 17.4893 10.0894C17.4893 8.93831 17.3205 7.89242 16.9829 6.95166C16.6509 6.0109 16.1722 5.20296 15.5469 4.52783C14.9271 3.84717 14.1855 3.32422 13.3223 2.95898C12.459 2.59375 11.5016 2.41113 10.4502 2.41113C9.39323 2.41113 8.43311 2.59375 7.56982 2.95898C6.70654 3.32422 5.96501 3.84717 5.34521 4.52783C4.72542 5.20296 4.24674 6.0109 3.90918 6.95166C3.57715 7.89242 3.41113 8.93831 3.41113 10.0894C3.41113 11.2072 3.56055 12.3472 3.85938 13.5093C4.16374 14.6659 4.59261 15.7505 5.146 16.7632C5.25114 16.9569 5.28158 17.1423 5.2373 17.3193C5.19857 17.502 5.09066 17.6403 4.91357 17.7344C4.72542 17.8395 4.54004 17.8672 4.35742 17.8174C4.18034 17.7731 4.04199 17.6624 3.94238 17.4854C3.53841 16.7715 3.18978 16.0023 2.89648 15.1777C2.60872 14.3532 2.38737 13.5093 2.23242 12.646C2.07747 11.7772 2 10.925 2 10.0894ZM4.59814 17.2778L3.41113 13.2354C3.26725 12.7539 3.29769 12.325 3.50244 11.9487C3.70719 11.5669 4.05029 11.3068 4.53174 11.1685C5.01318 11.0356 5.43929 11.0716 5.81006 11.2764C6.18636 11.4756 6.44369 11.8132 6.58203 12.2891L7.76904 16.3398C7.91292 16.8158 7.88249 17.2419 7.67773 17.6182C7.47298 18 7.12988 18.2601 6.64844 18.3984C6.16699 18.5368 5.73812 18.5036 5.36182 18.2988C4.99105 18.0941 4.73649 17.7537 4.59814 17.2778ZM16.2939 17.2778C16.1556 17.7537 15.8983 18.0941 15.522 18.2988C15.1512 18.5036 14.7251 18.5368 14.2437 18.3984C13.7677 18.2601 13.4246 18.0028 13.2144 17.6265C13.0096 17.2502 12.9792 16.8213 13.123 16.3398L14.3101 12.2891C14.4484 11.8132 14.703 11.4756 15.0737 11.2764C15.45 11.0716 15.8789 11.0356 16.3604 11.1685C16.8418 11.3068 17.1849 11.5641 17.3896 11.9404C17.5944 12.3167 17.6248 12.7484 17.481 13.2354L16.2939 17.2778Z" fill="black"/>
</svg>
