<svg width="22" height="22" viewBox="0 0 22 22" fill="none" xmlns="http://www.w3.org/2000/svg">
<path d="M2.2002 5.1334C2.2002 4.12088 3.021 3.30007 4.03353 3.30007L16.8669 3.30005C17.8794 3.30005 18.7002 4.12086 18.7002 5.13338V14.3328C18.7002 15.3453 17.8794 16.1662 16.8669 16.1662L13.5428 16.1662C13.3292 16.1662 13.1224 16.2407 12.958 16.377L10.4463 18.4578L7.96788 16.3803C7.80284 16.242 7.59437 16.1662 7.37901 16.1662H4.03353C3.02101 16.1662 2.2002 15.3454 2.2002 14.3328L2.2002 5.1334Z" stroke="black" stroke-width="1.5" stroke-linejoin="round"/>
<path d="M8.17725 7.19226C9.07227 7.19226 9.79974 7.91932 9.80518 8.82019L9.80615 8.82996C9.85754 9.84268 9.64438 10.5574 9.24365 11.1268C8.8476 11.6895 8.27782 12.0949 7.66162 12.5077C7.5773 12.564 7.46093 12.5411 7.40381 12.455C7.34681 12.3688 7.37095 12.2516 7.45654 12.1942C8.07628 11.779 8.58894 11.4068 8.93994 10.9081C8.99584 10.8286 9.04872 10.7451 9.09717 10.6561L9.40674 10.0868L8.81006 10.3397C8.61576 10.4222 8.40214 10.4686 8.17725 10.4686C7.27885 10.4686 6.54834 9.73554 6.54834 8.82996C6.54856 7.92456 7.27899 7.19226 8.17725 7.19226ZM12.7104 7.19226C13.6055 7.19226 14.3329 7.91932 14.3384 8.82019L14.3394 8.82996C14.3907 9.84268 14.1776 10.5574 13.7769 11.1268C13.3808 11.6895 12.811 12.0949 12.1948 12.5077C12.1105 12.564 11.9941 12.5411 11.937 12.455C11.88 12.3688 11.9042 12.2516 11.9897 12.1942C12.6095 11.779 13.1221 11.4068 13.4731 10.9081C13.529 10.8286 13.5819 10.7451 13.6304 10.6561L13.9399 10.0868L13.3433 10.3397C13.149 10.4222 12.9353 10.4686 12.7104 10.4686C11.8121 10.4686 11.0815 9.73554 11.0815 8.82996C11.0818 7.92457 11.8122 7.19227 12.7104 7.19226Z" fill="black" stroke="black" stroke-width="0.451805"/>
</svg>
