<svg width="22" height="22" viewBox="0 0 22 22" fill="none" xmlns="http://www.w3.org/2000/svg">
<path d="M8.06278 10.7357L10.3189 12.9786L8.65568 13.0567L13.0084 7.20798C13.2196 6.92418 13.6189 6.86477 13.9027 7.07487C14.1689 7.27287 14.2338 7.63806 14.0743 7.91746L10.3794 14.1996C10.0571 14.8486 9.08578 14.8915 8.71178 14.2766L6.99356 11.5992C6.55026 10.9161 7.49628 10.1648 8.06278 10.7357Z" fill="black"/>
<path d="M17.4058 10.74C17.4058 14.4229 14.4208 17.4109 10.7402 17.4109C7.05792 17.4109 4.06934 14.4223 4.06934 10.74C4.06937 7.05467 7.05768 4.07017 10.7402 4.07017C14.421 4.0702 17.4057 7.05408 17.4058 10.74ZM19.276 10.74C19.2759 6.02201 15.4545 2.19999 10.7402 2.19995C6.02543 2.19995 2.20023 6.02137 2.2002 10.74C2.2002 15.4551 6.02515 19.28 10.7402 19.28C15.4548 19.28 19.276 15.4544 19.276 10.74Z" fill="black"/>
</svg>
