<svg width="22" height="22" viewBox="0 0 22 22" fill="none" xmlns="http://www.w3.org/2000/svg">
<path d="M1.1001 11.5177C1.1001 13.6147 2.79804 15.3193 4.90068 15.3193H7.0749L7.17051 15.315C7.64197 15.2671 8.00947 14.8689 8.00947 14.3848C8.00947 13.9007 7.64197 13.5024 7.17051 13.4545L7.0749 13.4502H4.90068C3.83313 13.4502 2.96924 12.5842 2.96924 11.5177C2.96944 10.7337 3.43829 10.0553 4.12295 9.75166L4.67939 9.50459V8.08984C4.67939 5.26303 6.96778 2.97035 9.79805 2.97012C11.982 2.97012 13.8482 4.34528 14.5794 6.28086L14.7985 6.86201L15.4205 6.88457L15.746 6.9125C17.3553 7.12959 18.5916 8.5013 18.5916 10.1652C18.5916 11.9767 17.1205 13.4499 15.3034 13.4502H14.0176C13.5014 13.4505 13.083 13.8685 13.083 14.3848C13.083 14.901 13.5014 15.3191 14.0176 15.3193H15.3034C18.152 15.319 20.4618 13.0107 20.4618 10.1652C20.4618 7.58272 18.5663 5.45698 16.094 5.07559C14.9709 2.7286 12.5782 1.0999 9.79805 1.0999C5.93412 1.10014 2.80918 4.23115 2.80918 8.08984V8.34981C1.78003 9.03028 1.10027 10.1925 1.1001 11.5177Z" fill="black"/>
<path d="M9.77325 20.2622L9.54994 10.5734C9.54114 10.0575 9.94925 9.62735 10.4651 9.61965C10.9975 9.60205 11.4353 10.0443 11.4232 10.5734L11.1999 20.2622C11.1779 21.173 9.79415 21.1774 9.77325 20.2622Z" fill="black"/>
<path d="M7.659 16.4947L10.959 19.7298H10.0097L13.313 16.4947C13.6826 16.1295 14.2755 16.1372 14.6374 16.5068C15.0235 16.8984 14.985 17.5474 14.5593 17.8906L10.9634 20.7957C10.6796 21.0234 10.2803 21.0146 10.0097 20.7957L6.41271 17.8906C5.42821 17.0744 6.7306 15.6048 7.659 16.4947Z" fill="black"/>
</svg>
