<svg width="19" height="20" viewBox="0 0 19 20" fill="none" xmlns="http://www.w3.org/2000/svg">
<path d="M4.51074 10.2666V3.04492C4.51074 2.18164 4.7238 1.53141 5.1499 1.09424C5.58154 0.657064 6.22624 0.438477 7.08398 0.438477H11.0269C11.3368 0.438477 11.6079 0.460612 11.8403 0.504883C12.0783 0.54362 12.2969 0.621094 12.4961 0.737305C12.6953 0.847982 12.9001 1.01123 13.1104 1.22705L17.6841 5.88379C17.9054 6.11068 18.0715 6.3265 18.1821 6.53125C18.2983 6.73047 18.3758 6.95182 18.4146 7.19531C18.4533 7.4388 18.4727 7.7404 18.4727 8.1001V15.6372C18.4727 16.5005 18.2568 17.1479 17.8252 17.5796C17.3991 18.0168 16.7572 18.2354 15.8994 18.2354H9.81494C9.93669 18.0306 10.0418 17.8148 10.1304 17.5879C10.2189 17.3665 10.2909 17.1369 10.3462 16.8989H15.833C16.2646 16.8989 16.5884 16.7882 16.8042 16.5669C17.0256 16.3455 17.1362 16.0273 17.1362 15.6123V8.1582H12.4048C11.8846 8.1582 11.4945 8.02816 11.2344 7.76807C10.9743 7.50798 10.8442 7.11784 10.8442 6.59766V1.7749H7.15039C6.71875 1.7749 6.39225 1.88835 6.1709 2.11523C5.95508 2.34212 5.84717 2.66032 5.84717 3.06982V10.2666C5.73096 10.2555 5.61751 10.2472 5.50684 10.2417C5.39616 10.2306 5.28271 10.2251 5.1665 10.2251C5.05583 10.2251 4.94515 10.2306 4.83447 10.2417C4.72933 10.2472 4.62142 10.2555 4.51074 10.2666ZM12.0977 6.43994C12.0977 6.60596 12.1309 6.72493 12.1973 6.79688C12.2692 6.86882 12.3882 6.90479 12.5542 6.90479H16.8789L12.0977 2.03223V6.43994ZM5.18311 19.8042C4.60758 19.8042 4.06527 19.6935 3.55615 19.4722C3.04704 19.2563 2.5988 18.9548 2.21143 18.5674C1.82406 18.18 1.51969 17.7318 1.29834 17.2227C1.07699 16.7135 0.966309 16.1685 0.966309 15.5874C0.966309 15.0063 1.07699 14.464 1.29834 13.9604C1.51969 13.4513 1.82406 13.0031 2.21143 12.6157C2.5988 12.2228 3.04704 11.9185 3.55615 11.7026C4.06527 11.4813 4.60758 11.3706 5.18311 11.3706C5.76416 11.3706 6.30924 11.4813 6.81836 11.7026C7.32747 11.9185 7.77572 12.2201 8.16309 12.6074C8.55046 12.9948 8.85205 13.443 9.06787 13.9521C9.28923 14.4613 9.3999 15.0063 9.3999 15.5874C9.3999 16.1629 9.28923 16.7052 9.06787 17.2144C8.84652 17.7235 8.53939 18.1717 8.14648 18.5591C7.75911 18.9465 7.31087 19.2508 6.80176 19.4722C6.29264 19.6935 5.75309 19.8042 5.18311 19.8042ZM3.20752 16.2349H5.22461C5.36849 16.2349 5.48747 16.1851 5.58154 16.0854C5.68115 15.9858 5.73096 15.8641 5.73096 15.7202V13.1304C5.73096 12.992 5.68115 12.8758 5.58154 12.7817C5.48193 12.6821 5.36296 12.6323 5.22461 12.6323C5.08073 12.6323 4.95898 12.6821 4.85938 12.7817C4.75977 12.8758 4.70996 12.992 4.70996 13.1304V15.2139H3.20752C3.06917 15.2139 2.94743 15.2637 2.84229 15.3633C2.74268 15.4629 2.69287 15.5819 2.69287 15.7202C2.69287 15.8586 2.74268 15.9775 2.84229 16.0771C2.94189 16.1823 3.06364 16.2349 3.20752 16.2349Z" fill="black"/>
</svg>
