<svg width="24" height="24" viewBox="0 0 24 24" fill="none" xmlns="http://www.w3.org/2000/svg">
<path d="M3.30603 11.2277C8.40725 8.96995 11.808 7.48134 13.5084 6.76218C18.3691 4.70857 19.3778 4.35191 20.0366 4.33996C20.1815 4.33746 20.5041 4.37385 20.7146 4.5469C20.8896 4.69274 20.9388 4.88996 20.9634 5.02829C20.9853 5.16662 21.0154 5.4819 20.9908 5.72801C20.7283 8.53912 19.5884 15.3608 19.0088 18.5094C18.7655 19.8416 18.2816 20.2883 17.8141 20.3319C16.7972 20.4269 16.0262 19.6497 15.042 18.9944C13.5029 17.9685 12.6336 17.3302 11.1383 16.3294C9.41052 15.1727 10.5313 14.5369 11.5155 13.498C11.7725 13.226 16.2504 9.08856 16.3351 8.71328C16.346 8.66634 16.357 8.49134 16.2531 8.39912C16.152 8.30662 16.0015 8.33828 15.8922 8.36328C15.7364 8.39884 13.2787 10.0511 8.51101 13.3197C7.8139 13.8069 7.18241 14.0444 6.61379 14.0319C5.99049 14.0183 4.78771 13.673 3.89376 13.378C2.80025 13.016 1.92814 12.8247 2.00468 12.2099C2.04295 11.8899 2.47769 11.5624 3.30603 11.2277Z" fill="black"/>
</svg>
