<svg width="13" height="32" viewBox="0 0 13 32" fill="none" xmlns="http://www.w3.org/2000/svg">
<path d="M2.26611 22.1992C1.53011 22.1992 0.968424 22.0083 0.581055 21.6265C0.193685 21.2446 0 20.6857 0 19.9497V12.0723C0 11.3418 0.193685 10.7856 0.581055 10.4038C0.968424 10.0164 1.53011 9.82275 2.26611 9.82275H10.1021C10.8436 9.82275 11.4053 10.0164 11.7871 10.4038C12.1745 10.7856 12.3682 11.3418 12.3682 12.0723V19.9497C12.3682 20.6857 12.1745 21.2446 11.7871 21.6265C11.4053 22.0083 10.8436 22.1992 10.1021 22.1992H2.26611ZM2.39893 20.6138H9.96924C10.2349 20.6138 10.4368 20.5474 10.5752 20.4146C10.7191 20.2762 10.791 20.0687 10.791 19.792V12.2383C10.791 11.9561 10.7191 11.7485 10.5752 11.6157C10.4368 11.4774 10.2349 11.4082 9.96924 11.4082H2.39893C2.1333 11.4082 1.92855 11.4774 1.78467 11.6157C1.64632 11.7485 1.57715 11.9561 1.57715 12.2383V19.792C1.57715 20.0687 1.64632 20.2762 1.78467 20.4146C1.92855 20.5474 2.1333 20.6138 2.39893 20.6138ZM8.16797 17.7915C7.97428 17.7915 7.8221 17.7306 7.71143 17.6089C7.60075 17.4816 7.54541 17.3128 7.54541 17.1025V16.2642L7.65332 15.4175L6.78174 16.3804L4.78125 18.3809C4.63184 18.5247 4.45475 18.5967 4.25 18.5967C4.05632 18.5967 3.89307 18.533 3.76025 18.4058C3.62744 18.2785 3.56104 18.1125 3.56104 17.9077C3.56104 17.7196 3.63298 17.5535 3.77686 17.4097L5.79395 15.4009L6.76514 14.521L5.92676 14.6455H5.06348C4.85319 14.6455 4.68441 14.5874 4.55713 14.4712C4.42985 14.355 4.36621 14.2 4.36621 14.0063C4.36621 13.8182 4.42985 13.6688 4.55713 13.5581C4.68441 13.4419 4.85042 13.3838 5.05518 13.3838H7.99365C8.24268 13.3838 8.43913 13.4502 8.58301 13.583C8.72689 13.7103 8.79883 13.9095 8.79883 14.1807V17.0942C8.79883 17.3045 8.74349 17.4733 8.63281 17.6006C8.52214 17.7279 8.36719 17.7915 8.16797 17.7915Z" fill="#3C3C43" fill-opacity="0.3"/>
</svg>
