<svg width="18" height="18" viewBox="0 0 18 18" fill="none" xmlns="http://www.w3.org/2000/svg">
<path d="M9 16.9238V1.7417C10.0791 1.7417 11.078 1.93262 11.9966 2.31445C12.9207 2.69629 13.7259 3.23307 14.4121 3.9248C15.0983 4.611 15.6323 5.41618 16.0142 6.34033C16.4015 7.25895 16.5952 8.25781 16.5952 9.33691C16.5952 10.416 16.4015 11.4176 16.0142 12.3418C15.6323 13.2604 15.0983 14.0628 14.4121 14.749C13.7259 15.4352 12.9207 15.9692 11.9966 16.3511C11.078 16.7329 10.0791 16.9238 9 16.9238ZM9 17.8037C7.83236 17.8037 6.73665 17.5824 5.71289 17.1396C4.68913 16.7025 3.78988 16.0965 3.01514 15.3218C2.2404 14.547 1.63167 13.6478 1.18896 12.624C0.75179 11.6003 0.533203 10.5046 0.533203 9.33691C0.533203 8.16927 0.75179 7.07357 1.18896 6.0498C1.63167 5.02604 2.2404 4.12679 3.01514 3.35205C3.78988 2.57178 4.68913 1.96305 5.71289 1.52588C6.73665 1.0887 7.83236 0.870117 9 0.870117C10.1676 0.870117 11.2633 1.0887 12.2871 1.52588C13.3109 1.96305 14.2101 2.57178 14.9849 3.35205C15.7596 4.12679 16.3656 5.02604 16.8027 6.0498C17.2454 7.07357 17.4668 8.16927 17.4668 9.33691C17.4668 10.5046 17.2454 11.6003 16.8027 12.624C16.3656 13.6478 15.7596 14.547 14.9849 15.3218C14.2101 16.0965 13.3109 16.7025 12.2871 17.1396C11.2633 17.5824 10.1676 17.8037 9 17.8037ZM9 16.3926C9.97396 16.3926 10.887 16.21 11.7393 15.8447C12.5915 15.4795 13.3413 14.9731 13.9888 14.3257C14.6362 13.6782 15.1426 12.9284 15.5078 12.0762C15.873 11.224 16.0557 10.3109 16.0557 9.33691C16.0557 8.36296 15.873 7.44987 15.5078 6.59766C15.1426 5.73991 14.6362 4.99007 13.9888 4.34814C13.3413 3.70068 12.5915 3.19434 11.7393 2.8291C10.887 2.46387 9.97396 2.28125 9 2.28125C8.02604 2.28125 7.11296 2.46387 6.26074 2.8291C5.40853 3.19434 4.65869 3.70068 4.01123 4.34814C3.36377 4.99007 2.85742 5.73991 2.49219 6.59766C2.12695 7.44987 1.94434 8.36296 1.94434 9.33691C1.94434 10.3109 2.12695 11.224 2.49219 12.0762C2.85742 12.9284 3.36377 13.6782 4.01123 14.3257C4.65869 14.9731 5.40853 15.4795 6.26074 15.8447C7.11296 16.21 8.02604 16.3926 9 16.3926Z" fill="black"/>
</svg>
