<svg width="18" height="18" viewBox="0 0 18 18" fill="none" xmlns="http://www.w3.org/2000/svg">
<path d="M9 17.3389C8.42448 17.3389 7.88216 17.1396 7.37305 16.7412C6.86947 16.3428 6.42399 15.7839 6.03662 15.0645C5.65479 14.3451 5.35319 13.5011 5.13184 12.5327C4.91602 11.5588 4.80811 10.499 4.80811 9.35352C4.80811 8.20801 4.91602 7.14827 5.13184 6.17432C5.35319 5.19482 5.65479 4.34538 6.03662 3.62598C6.41846 2.90104 6.86117 2.33936 7.36475 1.94092C7.87386 1.54248 8.41895 1.34326 9 1.34326C9.58105 1.34326 10.1234 1.54248 10.627 1.94092C11.1361 2.33936 11.5815 2.90104 11.9634 3.62598C12.3507 4.34538 12.6523 5.19482 12.8682 6.17432C13.084 7.14827 13.1919 8.20801 13.1919 9.35352C13.1919 10.499 13.0812 11.5588 12.8599 12.5327C12.644 13.5011 12.3424 14.3451 11.9551 15.0645C11.5732 15.7839 11.1278 16.3428 10.6187 16.7412C10.1151 17.1396 9.57552 17.3389 9 17.3389ZM9 2.34766C8.59603 2.34766 8.20866 2.53581 7.83789 2.91211C7.46712 3.28288 7.13786 3.79199 6.8501 4.43945C6.56234 5.08691 6.33545 5.83398 6.16943 6.68066C6.00342 7.52181 5.92041 8.41276 5.92041 9.35352C5.92041 10.2832 6.00342 11.1659 6.16943 12.0015C6.33545 12.8371 6.56234 13.5814 6.8501 14.2344C7.13786 14.8818 7.46712 15.391 7.83789 15.7617C8.20866 16.138 8.59603 16.3262 9 16.3262C9.40397 16.3262 9.79134 16.138 10.1621 15.7617C10.5329 15.391 10.8621 14.8818 11.1499 14.2344C11.4377 13.5814 11.6646 12.8371 11.8306 12.0015C11.9966 11.1659 12.0796 10.2832 12.0796 9.35352C12.0796 8.41276 11.9966 7.52181 11.8306 6.68066C11.6646 5.83398 11.4377 5.08691 11.1499 4.43945C10.8621 3.79199 10.5329 3.28288 10.1621 2.91211C9.79134 2.53581 9.40397 2.34766 9 2.34766ZM8.46045 1.45947H9.54785V17.1812H8.46045V1.45947ZM9 12.458C9.85221 12.458 10.6602 12.5299 11.4238 12.6738C12.1875 12.8122 12.8737 13.0142 13.4824 13.2798C14.0967 13.5399 14.5975 13.847 14.9849 14.2012L14.1465 14.8901C13.7812 14.6024 13.3413 14.3589 12.8267 14.1597C12.3175 13.9549 11.7393 13.8027 11.0918 13.7031C10.4499 13.598 9.7526 13.5454 9 13.5454C8.2474 13.5454 7.54736 13.598 6.8999 13.7031C6.25798 13.8027 5.67969 13.9549 5.16504 14.1597C4.65592 14.3589 4.21875 14.6024 3.85352 14.8901L3.01514 14.2012C3.40251 13.847 3.90055 13.5399 4.50928 13.2798C5.12354 13.0142 5.8125 12.8122 6.57617 12.6738C7.33984 12.5299 8.14779 12.458 9 12.458ZM16.6616 8.78906V9.87646H1.33838V8.78906H16.6616ZM9 6.25732C8.14779 6.25732 7.33984 6.18815 6.57617 6.0498C5.8125 5.90592 5.12354 5.70394 4.50928 5.44385C3.90055 5.17822 3.40251 4.86833 3.01514 4.51416L3.85352 3.8252C4.21875 4.11296 4.65592 4.35921 5.16504 4.56396C5.67969 4.76318 6.25798 4.91536 6.8999 5.02051C7.54736 5.12012 8.2474 5.16992 9 5.16992C9.7526 5.16992 10.4499 5.12012 11.0918 5.02051C11.7393 4.91536 12.3175 4.76318 12.8267 4.56396C13.3413 4.35921 13.7812 4.11296 14.1465 3.8252L14.9849 4.51416C14.5975 4.86833 14.0967 5.17822 13.4824 5.44385C12.8737 5.70394 12.1875 5.90592 11.4238 6.0498C10.6602 6.18815 9.85221 6.25732 9 6.25732ZM9 17.8037C7.83236 17.8037 6.73665 17.5824 5.71289 17.1396C4.68913 16.7025 3.78988 16.0965 3.01514 15.3218C2.2404 14.547 1.63167 13.6478 1.18896 12.624C0.75179 11.6003 0.533203 10.5046 0.533203 9.33691C0.533203 8.16927 0.75179 7.07357 1.18896 6.0498C1.63167 5.02604 2.2404 4.12679 3.01514 3.35205C3.78988 2.57178 4.68913 1.96305 5.71289 1.52588C6.73665 1.0887 7.83236 0.870117 9 0.870117C10.1676 0.870117 11.2633 1.0887 12.2871 1.52588C13.3109 1.96305 14.2101 2.57178 14.9849 3.35205C15.7596 4.12679 16.3656 5.02604 16.8027 6.0498C17.2454 7.07357 17.4668 8.16927 17.4668 9.33691C17.4668 10.5046 17.2454 11.6003 16.8027 12.624C16.3656 13.6478 15.7596 14.547 14.9849 15.3218C14.2101 16.0965 13.3109 16.7025 12.2871 17.1396C11.2633 17.5824 10.1676 17.8037 9 17.8037ZM9 16.6748C10.0127 16.6748 10.9618 16.4839 11.8472 16.1021C12.7326 15.7202 13.5129 15.1945 14.188 14.5249C14.8631 13.8498 15.3888 13.0695 15.7651 12.1841C16.147 11.2987 16.3379 10.3496 16.3379 9.33691C16.3379 8.32422 16.147 7.37516 15.7651 6.48975C15.3888 5.5988 14.8631 4.81852 14.188 4.14893C13.5129 3.4738 12.7326 2.94808 11.8472 2.57178C10.9618 2.18994 10.0127 1.99902 9 1.99902C7.9873 1.99902 7.03825 2.18994 6.15283 2.57178C5.26742 2.94808 4.48714 3.4738 3.81201 4.14893C3.13688 4.81852 2.6084 5.5988 2.22656 6.48975C1.85026 7.37516 1.66211 8.32422 1.66211 9.33691C1.66211 10.3496 1.85026 11.2987 2.22656 12.1841C2.6084 13.0695 3.13688 13.8498 3.81201 14.5249C4.48714 15.1945 5.26742 15.7202 6.15283 16.1021C7.03825 16.4839 7.9873 16.6748 9 16.6748Z" fill="black"/>
</svg>
