<svg width="18" height="18" viewBox="0 0 18 18" fill="none" xmlns="http://www.w3.org/2000/svg">
<path d="M9 17.8037C7.83236 17.8037 6.73665 17.5824 5.71289 17.1396C4.68913 16.7025 3.78988 16.0965 3.01514 15.3218C2.2404 14.547 1.63167 13.6478 1.18896 12.624C0.75179 11.6003 0.533203 10.5046 0.533203 9.33691C0.533203 8.16927 0.75179 7.07357 1.18896 6.0498C1.63167 5.02604 2.2404 4.12679 3.01514 3.35205C3.78988 2.57178 4.68913 1.96305 5.71289 1.52588C6.73665 1.0887 7.83236 0.870117 9 0.870117C10.1676 0.870117 11.2633 1.0887 12.2871 1.52588C13.3109 1.96305 14.2101 2.57178 14.9849 3.35205C15.7596 4.12679 16.3656 5.02604 16.8027 6.0498C17.2454 7.07357 17.4668 8.16927 17.4668 9.33691C17.4668 10.5046 17.2454 11.6003 16.8027 12.624C16.3656 13.6478 15.7596 14.547 14.9849 15.3218C14.2101 16.0965 13.3109 16.7025 12.2871 17.1396C11.2633 17.5824 10.1676 17.8037 9 17.8037ZM9 16.3926C9.97396 16.3926 10.887 16.21 11.7393 15.8447C12.5915 15.4795 13.3413 14.9731 13.9888 14.3257C14.6362 13.6782 15.1426 12.9284 15.5078 12.0762C15.873 11.224 16.0557 10.3109 16.0557 9.33691C16.0557 8.36296 15.873 7.44987 15.5078 6.59766C15.1426 5.73991 14.6362 4.99007 13.9888 4.34814C13.3413 3.70068 12.5915 3.19434 11.7393 2.8291C10.887 2.46387 9.97396 2.28125 9 2.28125C8.02604 2.28125 7.11296 2.46387 6.26074 2.8291C5.40853 3.19434 4.65869 3.70068 4.01123 4.34814C3.36377 4.99007 2.85742 5.73991 2.49219 6.59766C2.12695 7.44987 1.94434 8.36296 1.94434 9.33691C1.94434 10.3109 2.12695 11.224 2.49219 12.0762C2.85742 12.9284 3.36377 13.6782 4.01123 14.3257C4.65869 14.9731 5.40853 15.4795 6.26074 15.8447C7.11296 16.21 8.02604 16.3926 9 16.3926ZM8.83398 11.0552C8.39128 11.0552 8.16992 10.8366 8.16992 10.3994C8.16992 10.3828 8.16992 10.3662 8.16992 10.3496C8.16992 10.3275 8.16992 10.3081 8.16992 10.2915C8.16992 9.882 8.26676 9.55273 8.46045 9.30371C8.65967 9.05469 8.90869 8.8278 9.20752 8.62305C9.57275 8.36849 9.84391 8.15267 10.021 7.97559C10.1981 7.79297 10.2866 7.56055 10.2866 7.27832C10.2866 6.96289 10.1732 6.70833 9.94629 6.51465C9.7194 6.31543 9.41504 6.21582 9.0332 6.21582C8.85059 6.21582 8.67904 6.24626 8.51855 6.30713C8.36361 6.368 8.22249 6.45654 8.09521 6.57275C7.96794 6.68343 7.85449 6.81901 7.75488 6.97949L7.60547 7.17871C7.53353 7.27832 7.44775 7.35856 7.34814 7.41943C7.25407 7.48031 7.13786 7.51074 6.99951 7.51074C6.86117 7.51074 6.73112 7.4637 6.60938 7.36963C6.48763 7.27002 6.42676 7.12614 6.42676 6.93799C6.42676 6.86605 6.43229 6.79688 6.44336 6.73047C6.45443 6.66406 6.47103 6.59766 6.49316 6.53125C6.60938 6.14941 6.8916 5.81462 7.33984 5.52686C7.79362 5.23356 8.37744 5.08691 9.09131 5.08691C9.56169 5.08691 9.99609 5.16992 10.3945 5.33594C10.793 5.49642 11.1139 5.73438 11.3574 6.0498C11.6064 6.36523 11.731 6.7526 11.731 7.21191C11.731 7.70996 11.6009 8.10286 11.3408 8.39062C11.0807 8.67839 10.7515 8.95508 10.353 9.2207C10.0597 9.41439 9.84391 9.59701 9.70557 9.76855C9.56722 9.93457 9.49805 10.1338 9.49805 10.3662C9.49805 10.3773 9.49805 10.3939 9.49805 10.416C9.49805 10.4326 9.49805 10.4492 9.49805 10.4658C9.49805 10.6263 9.43717 10.7646 9.31543 10.8809C9.19922 10.9971 9.03874 11.0552 8.83398 11.0552ZM8.80908 13.5288C8.57113 13.5288 8.36361 13.4458 8.18652 13.2798C8.00944 13.1082 7.9209 12.9035 7.9209 12.6655C7.9209 12.4276 8.00667 12.2256 8.17822 12.0596C8.35531 11.888 8.56559 11.8022 8.80908 11.8022C9.05257 11.8022 9.26286 11.8853 9.43994 12.0513C9.61702 12.2173 9.70557 12.422 9.70557 12.6655C9.70557 12.909 9.61702 13.1138 9.43994 13.2798C9.26286 13.4458 9.05257 13.5288 8.80908 13.5288Z" fill="black"/>
</svg>
