<svg width="15" height="19" viewBox="0 0 15 19" fill="none" xmlns="http://www.w3.org/2000/svg">
<path d="M10.5547 10.4492C10.6986 10.4492 10.8175 10.499 10.9116 10.5986C11.0112 10.6927 11.061 10.8117 11.061 10.9556C11.061 11.0994 11.0112 11.2212 10.9116 11.3208C10.8175 11.4204 10.6986 11.4702 10.5547 11.4702H4.25439C4.10498 11.4702 3.98047 11.4204 3.88086 11.3208C3.78125 11.2212 3.73145 11.0994 3.73145 10.9556C3.73145 10.8117 3.78125 10.6927 3.88086 10.5986C3.98047 10.499 4.10498 10.4492 4.25439 10.4492H10.5547ZM10.5547 13.3462C10.6986 13.3462 10.8175 13.396 10.9116 13.4956C11.0112 13.5952 11.061 13.7197 11.061 13.8691C11.061 14.0075 11.0112 14.1265 10.9116 14.2261C10.8175 14.3201 10.6986 14.3672 10.5547 14.3672H4.25439C4.10498 14.3672 3.98047 14.3201 3.88086 14.2261C3.78125 14.1265 3.73145 14.0075 3.73145 13.8691C3.73145 13.7197 3.78125 13.5952 3.88086 13.4956C3.98047 13.396 4.10498 13.3462 4.25439 13.3462H10.5547ZM3.09229 18.2354C2.23454 18.2354 1.58984 18.0195 1.1582 17.5879C0.732096 17.1562 0.519043 16.506 0.519043 15.6372V3.04492C0.519043 2.18164 0.732096 1.53141 1.1582 1.09424C1.58984 0.657064 2.23454 0.438477 3.09229 0.438477H7.03516C7.34505 0.438477 7.61621 0.460612 7.84863 0.504883C8.08659 0.54362 8.30518 0.621094 8.50439 0.737305C8.70361 0.847982 8.90837 1.01123 9.11865 1.22705L13.6924 5.88379C13.9137 6.11068 14.0798 6.3265 14.1904 6.53125C14.3066 6.73047 14.3841 6.95182 14.4229 7.19531C14.4616 7.4388 14.481 7.7404 14.481 8.1001V15.6372C14.481 16.5005 14.2651 17.1479 13.8335 17.5796C13.4074 18.0168 12.7655 18.2354 11.9077 18.2354H3.09229ZM3.15039 16.8989H11.8413C12.2729 16.8989 12.5967 16.7882 12.8125 16.5669C13.0339 16.3455 13.1445 16.0273 13.1445 15.6123V8.1582H8.41309C7.8929 8.1582 7.50277 8.02816 7.24268 7.76807C6.98258 7.50798 6.85254 7.11784 6.85254 6.59766V1.7749H3.15869C2.72705 1.7749 2.40055 1.88835 2.1792 2.11523C1.96338 2.34212 1.85547 2.66032 1.85547 3.06982V15.6123C1.85547 16.0273 1.96338 16.3455 2.1792 16.5669C2.40055 16.7882 2.72428 16.8989 3.15039 16.8989ZM8.5625 6.90479H12.8872L8.10596 2.03223V6.43994C8.10596 6.60596 8.13916 6.72493 8.20557 6.79688C8.27751 6.86882 8.39648 6.90479 8.5625 6.90479Z" fill="black"/>
</svg>
