<svg width="15" height="17" viewBox="0 0 15 17" fill="none" xmlns="http://www.w3.org/2000/svg">
<path d="M7.5 16.9448C7.43359 16.9448 7.35059 16.931 7.25098 16.9033C7.15137 16.8757 7.04899 16.8341 6.94385 16.7788C5.76514 16.1147 4.76904 15.5254 3.95557 15.0107C3.14762 14.4961 2.4974 13.998 2.00488 13.5166C1.51237 13.0352 1.15544 12.515 0.934082 11.9561C0.712728 11.3971 0.602051 10.7386 0.602051 9.98047V3.63037C0.602051 3.1932 0.693359 2.88053 0.875977 2.69238C1.06413 2.4987 1.33252 2.32992 1.68115 2.18604C1.87484 2.10303 2.14323 1.99512 2.48633 1.8623C2.82943 1.72949 3.2085 1.58561 3.62354 1.43066C4.03857 1.27572 4.45085 1.12354 4.86035 0.974121C5.27539 0.819173 5.65446 0.683594 5.99756 0.567383C6.34066 0.445638 6.61182 0.357096 6.81104 0.301758C6.92171 0.274089 7.03516 0.246419 7.15137 0.21875C7.26758 0.191081 7.38379 0.177246 7.5 0.177246C7.61621 0.177246 7.73242 0.191081 7.84863 0.21875C7.97038 0.240885 8.08659 0.268555 8.19727 0.301758C8.39095 0.368164 8.65934 0.46224 9.00244 0.583984C9.34554 0.705729 9.72461 0.841309 10.1396 0.990723C10.5547 1.14014 10.967 1.29232 11.3765 1.44727C11.7915 1.59668 12.1706 1.73779 12.5137 1.87061C12.8568 1.99788 13.1252 2.10303 13.3188 2.18604C13.673 2.33545 13.9414 2.50423 14.124 2.69238C14.3066 2.88053 14.3979 3.1932 14.3979 3.63037V9.98047C14.3979 10.7386 14.2873 11.3999 14.0659 11.9644C13.8501 12.5233 13.4959 13.0435 13.0034 13.5249C12.5109 14.0063 11.8579 14.5016 11.0444 15.0107C10.2365 15.5254 9.2404 16.1147 8.05615 16.7788C7.95101 16.8341 7.84863 16.8757 7.74902 16.9033C7.64941 16.931 7.56641 16.9448 7.5 16.9448ZM7.5 15.4424C7.56641 15.4424 7.63835 15.4258 7.71582 15.3926C7.79329 15.3649 7.8929 15.3151 8.01465 15.2432C8.97201 14.6621 9.77441 14.1613 10.4219 13.7407C11.0749 13.3201 11.5951 12.9217 11.9824 12.5454C12.3753 12.1691 12.6548 11.7568 12.8208 11.3086C12.9924 10.8604 13.0781 10.3153 13.0781 9.67334V3.8877C13.0781 3.74935 13.0588 3.64421 13.02 3.57227C12.9868 3.50033 12.9149 3.44499 12.8042 3.40625C12.5441 3.31771 12.2453 3.21533 11.9077 3.09912C11.5757 2.97738 11.2243 2.8501 10.8535 2.71729C10.4883 2.58447 10.1203 2.45166 9.74951 2.31885C9.38428 2.1805 9.03564 2.05046 8.70361 1.92871C8.37158 1.80143 8.08105 1.68799 7.83203 1.58838C7.76562 1.56071 7.70475 1.54134 7.64941 1.53027C7.59408 1.51921 7.54427 1.51367 7.5 1.51367C7.45573 1.51367 7.40592 1.51921 7.35059 1.53027C7.29525 1.54134 7.23438 1.56071 7.16797 1.58838C6.91895 1.68799 6.62842 1.79867 6.29639 1.92041C5.96436 2.04215 5.61296 2.16943 5.24219 2.30225C4.87142 2.42952 4.50065 2.55957 4.12988 2.69238C3.75911 2.8252 3.40771 2.95247 3.07568 3.07422C2.74365 3.19596 2.45312 3.30664 2.2041 3.40625C2.08789 3.45052 2.01042 3.50863 1.97168 3.58057C1.93848 3.64697 1.92188 3.74935 1.92188 3.8877V9.67334C1.92188 10.3153 2.00765 10.8604 2.1792 11.3086C2.35075 11.7568 2.63021 12.1719 3.01758 12.5537C3.40495 12.93 3.92236 13.3285 4.56982 13.749C5.22282 14.1641 6.02799 14.6621 6.98535 15.2432C7.1071 15.3151 7.20671 15.3649 7.28418 15.3926C7.36165 15.4258 7.43359 15.4424 7.5 15.4424ZM6.60352 12.0972C6.46517 12.0972 6.33789 12.0667 6.22168 12.0059C6.111 11.945 6.00309 11.8481 5.89795 11.7153L3.87256 9.2251C3.74528 9.05355 3.68164 8.882 3.68164 8.71045C3.68164 8.52783 3.74251 8.37288 3.86426 8.24561C3.99154 8.11279 4.14372 8.04639 4.3208 8.04639C4.43701 8.04639 4.54215 8.07129 4.63623 8.12109C4.73584 8.16536 4.83545 8.25391 4.93506 8.38672L6.57031 10.5034L10.0151 4.9751C10.1701 4.72607 10.3638 4.60156 10.5962 4.60156C10.7677 4.60156 10.9227 4.6569 11.061 4.76758C11.1994 4.87826 11.2686 5.0249 11.2686 5.20752C11.2686 5.3016 11.2464 5.39567 11.2021 5.48975C11.1634 5.57829 11.1191 5.6613 11.0693 5.73877L7.27588 11.7153C7.10986 11.9699 6.88574 12.0972 6.60352 12.0972Z" fill="black"/>
</svg>
