<svg width="17" height="19" viewBox="0 0 17 19" fill="none" xmlns="http://www.w3.org/2000/svg">
<path d="M6.0166 9.32861C6.0166 9.15153 6.08024 8.99658 6.20752 8.86377C6.3348 8.73096 6.48698 8.66455 6.66406 8.66455H13.3213L14.5581 8.72266L14.0684 8.24951L12.6987 6.97119C12.5659 6.85498 12.4995 6.70557 12.4995 6.52295C12.4995 6.3514 12.5549 6.20752 12.6655 6.09131C12.7762 5.9751 12.9173 5.91699 13.0889 5.91699C13.2438 5.91699 13.3877 5.98063 13.5205 6.10791L16.1602 8.84717C16.2432 8.93018 16.3013 9.01042 16.3345 9.08789C16.3677 9.16536 16.3843 9.24561 16.3843 9.32861C16.3843 9.41162 16.3677 9.49186 16.3345 9.56934C16.3013 9.64681 16.2432 9.72705 16.1602 9.81006L13.5205 12.5493C13.3877 12.6766 13.2438 12.7402 13.0889 12.7402C12.9173 12.7402 12.7762 12.6849 12.6655 12.5742C12.5549 12.4635 12.4995 12.3197 12.4995 12.1426C12.4995 11.9544 12.5659 11.8022 12.6987 11.686L14.0684 10.4077L14.5664 9.93457L13.3213 9.98438H6.66406C6.48698 9.98438 6.3348 9.92074 6.20752 9.79346C6.08024 9.66064 6.0166 9.5057 6.0166 9.32861ZM11.3291 11.5449V15.9609C11.3291 16.6084 11.1216 17.1286 10.7065 17.5215C10.2915 17.9199 9.74642 18.1191 9.07129 18.1191H2.92041C2.24528 18.1191 1.7002 17.9199 1.28516 17.5215C0.870117 17.1286 0.662598 16.6084 0.662598 15.9609V2.70459C0.662598 2.05713 0.870117 1.53695 1.28516 1.14404C1.7002 0.745605 2.24528 0.546387 2.92041 0.546387H9.07129C9.74642 0.546387 10.2915 0.745605 10.7065 1.14404C11.1216 1.53695 11.3291 2.05713 11.3291 2.70459V7.1123H9.99268V2.92041C9.99268 2.58838 9.8986 2.33382 9.71045 2.15674C9.5223 1.97412 9.25391 1.88281 8.90527 1.88281H3.09473C2.74056 1.88281 2.4694 1.97412 2.28125 2.15674C2.0931 2.33382 1.99902 2.58838 1.99902 2.92041V15.7451C1.99902 16.0771 2.0931 16.3317 2.28125 16.5088C2.4694 16.6914 2.74056 16.7827 3.09473 16.7827H8.90527C9.25391 16.7827 9.5223 16.6914 9.71045 16.5088C9.8986 16.3317 9.99268 16.0771 9.99268 15.7451V11.5449H11.3291Z" fill="black"/>
</svg>
