<svg width="17" height="17" viewBox="0 0 17 17" fill="none" xmlns="http://www.w3.org/2000/svg">
<path d="M12.0527 16.228C11.2614 16.228 10.423 16.0675 9.5376 15.7466C8.65218 15.4256 7.75016 14.958 6.83154 14.3438C5.91292 13.7295 5.01367 12.9797 4.13379 12.0942C3.24284 11.2088 2.49023 10.3068 1.87598 9.38818C1.26172 8.46956 0.794108 7.56755 0.473145 6.68213C0.157715 5.79118 0 4.95003 0 4.15869C0 3.68278 0.0442708 3.25391 0.132812 2.87207C0.226888 2.49023 0.370768 2.1416 0.564453 1.82617C0.758138 1.51074 1.0127 1.21468 1.32812 0.937988C1.36133 0.904785 1.39453 0.874349 1.42773 0.84668C1.46647 0.813477 1.50244 0.780273 1.53564 0.74707C2.09456 0.249023 2.63135 0.00553385 3.146 0.0166016C3.44482 0.0221354 3.73258 0.113444 4.00928 0.290527C4.2915 0.462077 4.5599 0.733236 4.81445 1.104L6.45801 3.46143C6.66829 3.76025 6.7596 4.07568 6.73193 4.40771C6.70426 4.73421 6.61019 5.02474 6.44971 5.2793L5.70264 6.44971C5.56982 6.65446 5.55322 6.84538 5.65283 7.02246C5.79118 7.26042 5.9987 7.55094 6.27539 7.89404C6.55762 8.23714 6.85645 8.56641 7.17188 8.88184C7.38216 9.09212 7.61182 9.30794 7.86084 9.5293C8.10986 9.74512 8.34505 9.94157 8.56641 10.1187C8.78776 10.2902 8.95931 10.4147 9.08105 10.4922C9.2028 10.5641 9.31901 10.6029 9.42969 10.6084C9.54036 10.6084 9.65934 10.5807 9.78662 10.5254L11.0732 9.89453C11.4717 9.70085 11.8203 9.6123 12.1191 9.62891C12.4235 9.63997 12.7334 9.75342 13.0488 9.96924L15.1323 11.397C15.5031 11.6515 15.7743 11.9227 15.9458 12.2104C16.1229 12.4927 16.2114 12.7832 16.2114 13.082C16.2114 13.3366 16.1506 13.5994 16.0288 13.8706C15.9126 14.1362 15.73 14.4074 15.481 14.6841C15.4478 14.7228 15.4146 14.7588 15.3813 14.792C15.3537 14.8252 15.3232 14.8612 15.29 14.8999C14.8695 15.3703 14.4046 15.7078 13.8955 15.9126C13.3919 16.1229 12.7777 16.228 12.0527 16.228ZM12.061 14.9663C12.5203 14.9552 12.9437 14.8695 13.3311 14.709C13.7184 14.5485 14.056 14.305 14.3438 13.9785C14.3659 13.9508 14.3853 13.9259 14.4019 13.9038C14.424 13.8817 14.4461 13.8568 14.4683 13.8291C14.6896 13.5745 14.8003 13.3228 14.8003 13.0737C14.8003 12.9465 14.7726 12.8302 14.7173 12.7251C14.6675 12.62 14.5817 12.5286 14.46 12.4512L12.5176 11.1479C12.3848 11.0649 12.252 11.0151 12.1191 10.9985C11.9919 10.9819 11.848 11.0096 11.6875 11.0815L10.293 11.7456C9.9056 11.9338 9.58464 12.014 9.33008 11.9863C9.07552 11.9587 8.82373 11.8535 8.57471 11.6709C8.38102 11.5381 8.1486 11.361 7.87744 11.1396C7.60628 10.9183 7.32959 10.6831 7.04736 10.4341C6.77067 10.1851 6.52718 9.9554 6.31689 9.74512C5.99593 9.42969 5.66667 9.06445 5.3291 8.64941C4.99707 8.23438 4.71208 7.86914 4.47412 7.55371C4.2915 7.30469 4.18913 7.0612 4.16699 6.82324C4.14486 6.57975 4.2251 6.31136 4.40771 6.01807L5.23779 4.68994C5.39274 4.42985 5.40381 4.20296 5.271 4.00928L3.77686 1.76807C3.62744 1.54118 3.41992 1.42773 3.1543 1.42773C3.03809 1.42773 2.91357 1.4554 2.78076 1.51074C2.65348 1.56608 2.5262 1.64909 2.39893 1.75977C2.37679 1.7819 2.35189 1.80404 2.32422 1.82617C2.30208 1.84277 2.27718 1.86214 2.24951 1.88428C1.92301 2.17204 1.67676 2.5096 1.51074 2.89697C1.35026 3.27881 1.26725 3.69661 1.26172 4.15039C1.24512 4.85872 1.4056 5.62516 1.74316 6.44971C2.08626 7.26872 2.54834 8.09326 3.12939 8.92334C3.71045 9.74788 4.36344 10.5199 5.08838 11.2393C5.80225 11.9531 6.56315 12.5951 7.37109 13.165C8.18457 13.7295 8.99251 14.1722 9.79492 14.4932C10.6029 14.8197 11.3582 14.9774 12.061 14.9663Z" fill="black"/>
</svg>
