<svg width="21" height="15" viewBox="0 0 21 15" fill="none" xmlns="http://www.w3.org/2000/svg">
<path d="M2.60645 14.3105C1.74316 14.3105 1.09294 14.0947 0.655762 13.6631C0.218587 13.2314 0 12.5895 0 11.7373V2.57324C0 1.71549 0.20752 1.07357 0.622559 0.647461C1.0376 0.21582 1.61589 0 2.35742 0H17.4233C18.2866 0 18.9368 0.21582 19.374 0.647461C19.8112 1.07357 20.0298 1.71549 20.0298 2.57324V11.7373C20.0298 12.5895 19.8223 13.2314 19.4072 13.6631C18.9922 14.0947 18.4139 14.3105 17.6724 14.3105H2.60645ZM2.55664 13.0405H17.4648C17.8799 13.0405 18.1981 12.9299 18.4194 12.7085C18.6463 12.4871 18.7598 12.1634 18.7598 11.7373V2.57324C18.7598 2.14714 18.6463 1.8234 18.4194 1.60205C18.1981 1.3807 17.8799 1.27002 17.4648 1.27002H2.55664C2.14714 1.27002 1.82894 1.3807 1.60205 1.60205C1.3807 1.8234 1.27002 2.14437 1.27002 2.56494V11.729C1.27002 12.1606 1.3807 12.4871 1.60205 12.7085C1.82894 12.9299 2.14714 13.0405 2.55664 13.0405ZM10.0107 9.33838C9.74512 9.33838 9.48503 9.28857 9.23047 9.18896C8.97591 9.08382 8.72965 8.92334 8.4917 8.70752L0.680664 1.67676L1.54395 0.805176L9.21387 7.71973C9.46842 7.94661 9.73405 8.06006 10.0107 8.06006C10.293 8.06006 10.5586 7.94661 10.8076 7.71973L18.4775 0.805176L19.3408 1.67676L11.5298 8.70752C11.2918 8.92334 11.0456 9.08382 10.791 9.18896C10.5365 9.28857 10.2764 9.33838 10.0107 9.33838ZM1.66846 13.248L0.805176 12.3765L6.69873 6.48291L7.56201 7.34619L1.66846 13.248ZM18.3696 13.2563L12.4595 7.34619L13.3311 6.48291L19.2329 12.3848L18.3696 13.2563Z" fill="black"/>
</svg>
