<svg width="29" height="28" viewBox="0 0 29 28" fill="none" xmlns="http://www.w3.org/2000/svg">
<path d="M8.21803 15.809C5.98578 13.5767 5.98578 9.94656 8.21803 7.71905C9.331 6.60609 10.7969 6.04405 12.2614 6.04405C13.7274 6.04405 15.1934 6.60609 16.3063 7.71905C18.5386 9.94656 18.5386 13.5767 16.3063 15.809C14.0741 18.0349 10.4503 18.0412 8.21803 15.809ZM23.6728 20.7928L18.2726 16.3472C20.5365 13.3852 20.3197 9.12331 17.6109 6.41452C14.6615 3.45876 9.86288 3.46509 6.91345 6.41452C3.96244 9.36395 3.96244 14.1641 6.91345 17.1135C8.38421 18.5922 10.3267 19.3268 12.2614 19.3268C13.8825 19.3268 15.4958 18.8075 16.851 17.7753C18.1365 19.3394 21.298 23.1739 21.298 23.1739C22.924 25.004 25.4966 22.4203 23.6728 20.7928Z" fill="#3C3C43" fill-opacity="0.6"/>
<path d="M15.7505 12.6855C15.2424 12.6855 14.8291 12.277 14.8291 11.7641C14.8291 10.3487 13.6781 9.19776 12.2612 9.19776C11.7483 9.19776 11.3398 8.78297 11.3398 8.27636C11.3398 7.76342 11.7483 7.34863 12.2612 7.34863C14.6929 7.34863 16.6783 9.32759 16.6783 11.7641C16.6783 12.277 16.2635 12.6855 15.7505 12.6855Z" fill="#3C3C43" fill-opacity="0.6"/>
</svg>
